<svg xmlns="http://www.w3.org/2000/svg" width="512" height="200" fill="none" viewBox="0 0 512 200">
  <g clip-path="url(#a)">
    <mask id="b" width="512" height="200" x="0" y="0" maskUnits="userSpaceOnUse" style="mask-type:luminance">
      <path fill="#fff" d="M512 0H0v200h512V0Z"/>
    </mask>
    <g mask="url(#b)">
      <path fill="#000" d="M6.398 118.172c5.513-8.724 10.72-17.151 16.62-25.06 6.135-8.223 12.938-15.945 19.78-24.291-2.282-1.688-4.142-3.339-6.245-4.575C24.795 57.334 21.847 44.36 24.76 32.32c3.147-13.006 12.781-17.518 23.814-19.335 9.613-1.583 18.684.444 26.234 7.574 7.147 6.75 11.488 25.882 6.475 34.408-6.591 11.21-14.032 21.92-21.084 32.86-1.235 1.915-2.355 3.904-3.988 6.627 1.42.532 2.99 1.65 4.53 1.611 10.339-.26 20.686-.58 30.989-1.399 1.533-.122 3.019-2.86 4.188-4.613.5-.748-.046-2.117.184-3.137 2.249-9.998 2.267-9.994 12.882-9.994h34.837l-4.681 19.24h21.73c-1.325 7.536-2.505 14.4-3.745 21.252-.698 3.853-1.196 7.783-2.382 11.486-.549 1.714-2.364 4-3.891 4.245a107.789 107.789 0 0 1-16.927 1.357c-3.568.002-5.134 1.146-5.997 4.6-3.436 13.75-7.132 27.434-10.809 41.435H72.636l10.674-45.192c-.735-.287-1.268-.67-1.809-.683-19.52-.466-39.04-.932-58.56-1.314-9.832-.193-15.654-5.268-16.543-15.177Zm334.082 29.556c5.76-2.913 7.245-6.951 8.723-10.261 3.152-7.061 5.104-14.681 7.268-22.153a3552.039 3552.039 0 0 0 13.352-47.397c.489-1.78.066-3.81.066-5.54h43.061c.263 1.388.595 2.031.452 2.54-2.95 10.452-5.983 20.879-8.932 31.33-2.171 7.69-4.347 15.382-6.34 23.119-3.278 12.718-6.404 25.475-9.605 38.213-1.906 7.588-3.834 15.17-5.863 23.189l-37.78-.001c-.639 0-1.685.219-1.859-.074-4.91-8.225-9.756-1.328-14.85-.241-11.602 2.475-23.436 3.907-35.12.793-9.934-2.646-16.439-11.891-16.579-22.136-.171-12.391 2.177-24.292 5.715-36.168 3.805-12.774 6.432-25.898 9.665-38.847 1.59-6.365 3.204-12.737 5.224-18.97.478-1.476 2.617-3.401 4.027-3.43 12.978-.263 25.963-.155 39.301-.155 0 1.618.275 2.915-.044 4.046-2.612 9.267-5.651 18.425-7.95 27.768-3.539 14.384-6.557 28.897-9.874 43.338-1.135 4.942-.166 8.711 4.789 11.037 4.652 2.185 7.393 2.913 13.153 0Z"/>
      <path fill="#000" d="M231.662 41.406c3.054 15.523 1.083 29.954-4.961 43.836-2.79 6.409-5.503 12.978-9.29 18.795-5.614 8.62-13.701 14.485-22.616 19.901-10.338 6.282-21.247 8.199-34.344 9.725 2.596-13.198 5.043-25.65 7.484-38.098 12.14-3.78 25.985-21.206 19.954-37.328-2.929-6.314-36.849-4.39-37.462-4.755-.519 1.774-.865 2.927-1.194 4.084-1.188 4.166-1.896 9.437-4.593 11.024-3.689 2.17-8.711 1.862-13.587 1.904-8.318.07-16.639-.081-24.955.06-4.427.075-5.094-1.242-3.844-5.605 4.681-16.347 8.83-32.848 13.25-49.563 27.046 0 53.941-.856 80.741.373 12.742.584 25.085 5.601 32.408 17.784 1.34 2.23 2.014 4.862 3.009 7.863Zm244.629 50.869c-8.561-1.697-16.584-3.606-24.383 4.394 7.039 4.753 13.611 9.068 20.051 13.572 6.943 4.856 13.818 9.814 20.567 14.931.96.728 1.366 2.579 1.496 3.96 1.447 15.431-1.687 29.248-13.519 40.355-8.087 7.593-17.379 11.253-28.367 12.777-18.24 2.531-35.652-.431-52.927-5.484-2.956-.866-5.663-2.417-4.028-7.198 2.446-7.159 3.604-14.751 5.454-22.123 1.206-4.808 3.476-6.206 8.603-3.786 11.815 5.581 24.079 9.989 37.492 6.281 1.856-.513 4.91-2.296 4.81-3.205-.275-2.513-1.274-5.805-3.152-7.126-6.508-4.578-13.555-8.374-20.312-12.604-12.184-7.625-16.095-16.225-13.302-29.589 2.722-13.026 8.141-24.602 20.928-30.378 6.977-3.151 14.603-5.581 22.164-6.536 8.819-1.113 17.897-.533 26.839-.148 4.689.202 9.299 2 13.994 2.288 7.025.431 6.31 5.313 5.368 9.418-1.833 7.979-4.482 15.77-7.037 24.47-6.574-1.382-13.368-2.812-20.739-4.27Zm-259.544 75.952c3.222-12.209 6.061-24.015 8.931-35.814 4.124-16.95 8.169-33.921 12.446-50.833 2.161-8.538 4.922-16.923 7.126-25.451 2.879-11.135 5.371-22.369 8.25-33.503.967-3.74 2.607-7.305 3.909-10.865h42.699c-4.457 15.8-8.988 31.127-13.086 46.57-5.32 20.04-10.258 40.182-15.436 60.261-3.277 12.712-6.766 25.37-10.018 38.088-2.028 7.929-3.793 15.925-5.489 23.098h-42.747c1.208-4.419 2.127-7.782 3.415-11.551Z"/>
    </g>
  </g>
  <defs>
    <clipPath id="a">
      <path fill="#fff" d="M0 0h512v200H0z"/>
    </clipPath>
  </defs>
</svg>
