<svg xmlns="http://www.w3.org/2000/svg" width="665" height="200" fill="none" viewBox="0 0 665 200">
  <path fill="#000" d="M200.234 136.158V43.287c15.115-.068 30.028-1.316 44.82.93 7.041 1.069 13.307 4.085 17.493 10.282 8.054 11.921 4.228 27.335-8.399 34.032-.32.17-.619.376-.917.559.103.229.133.436.217.461 11.038 3.333 16.554 13.31 15.233 25.184-1.389 12.474-7.985 20.141-20.19 23.134-4.262 1.045-8.753 1.477-13.151 1.561-11.156.214-22.319.074-33.479.068-.448 0-.895-.076-1.627-.143v-3.197Zm33.542-40.225h-16.633v30.151c6.606 0 13.014.032 19.422-.024 1.439-.012 2.899-.221 4.311-.521 10.921-2.318 15.536-16.711 7.893-24.96-1.486-1.604-3.638-2.942-5.728-3.542-2.811-.806-5.86-.776-9.265-1.104Zm12.823-16.85c3.926-4.474 4.066-9.62 2.31-14.904-1.65-4.966-5.904-6.804-10.562-7.14-6.54-.47-13.122-.339-19.687-.449-.508-.008-1.019.115-1.572.182v27.15c7.299-.261 14.476-.202 21.572-.936 2.665-.275 5.142-2.39 7.939-3.903Zm393.619-8.231c1.544-2.553 3.625-3.262 6.429-3.13 4.941.234 9.901.066 15.533.066l-26.538 29.91L665 139.499c-6.308 0-12.018.055-17.723-.075-.672-.015-1.477-.942-1.956-1.63-6.126-8.806-12.203-17.646-18.295-26.475-.52-.754-1.06-1.494-1.624-2.288-2.342 2.273-4.669 4.435-6.851 6.735-.424.447-.385 1.432-.388 2.17-.026 7.051-.016 14.102-.016 21.36h-15.905V37.884h15.855v58.091c7.637-8.668 14.829-16.83 22.121-25.123Zm-78.013 69.914c-18.799-.644-31.998-13.95-32.625-32.574-.264-7.813.24-15.478 3.534-22.718 9.587-21.072 31.661-22.084 43.99-15.494 6.957 3.718 11.013 9.768 13.29 17.137 2.158 6.986 2.135 14.182 1.942 21.61h-46.319c-.632 6.908 4.324 14.791 11.021 17.779 8.228 3.67 17.679.977 25.624-7.395l8.615 8.239c-7.232 9.848-17.063 13.707-29.072 13.416Zm-9.869-57.933c-3.97 3.771-5.649 8.557-6.341 13.935h30.536c-.378-6.475-1.496-12.508-7.607-15.678-5.553-2.88-11.221-2.5-16.588 1.743Zm-255.929 62.96c2.444-4.475 2.004-8.566.307-13.206-7.6-20.785-14.799-41.718-22.141-62.598-.2-.57-.377-1.148-.643-1.963.678-.09 1.237-.227 1.795-.229 4.359-.018 8.721.073 13.076-.05 1.74-.05 2.521.463 3.048 2.194 4.352 14.284 8.813 28.535 13.247 42.795.29.935.628 1.855 1.391 2.799l4.166-13.94c3.202-10.717 6.385-21.44 9.657-32.136.203-.666 1.089-1.584 1.676-1.598 5.178-.126 10.36-.073 15.846-.073-1.803 5.287-3.512 10.337-5.245 15.38-7.493 21.798-14.997 43.592-22.487 65.391-2.042 5.942-4.628 11.548-9.738 15.529-5.908 4.6-12.559 5.192-19.579 3.401-.467-.119-1.155-.708-1.164-1.091-.087-3.809-.052-7.62-.052-11.676 7.697.801 14.037-.665 16.84-8.929Zm104.892-19.927c-7.732 12.08-18.991 16.179-32.492 14.632-13.261-1.52-21.98-9.195-26.159-21.709-3.419-10.238-3.438-20.73.269-30.949 5.254-14.48 17.509-22.286 32.84-21.285 16.143 1.053 28.057 12.112 30.309 28.393 1.478 10.683.887 21.131-4.767 30.918Zm-16.949-2.037c1.15-1.611 2.656-3.075 3.392-4.858 4.121-9.982 4.511-20.185.188-30.12-2.799-6.432-8.118-9.786-15.383-9.39-7.014.384-11.534 4.283-13.83 10.617-3.175 8.757-3.412 17.757-.364 26.595 3.951 11.456 16.782 15.028 25.997 7.156Zm75.965-28.584c-.315-3.107-.383-6.04-1.014-8.846-.639-2.844-2.694-4.74-5.435-5.798-7.116-2.747-15.249-.194-19.383 6.237-.689 1.073-1.071 2.541-1.077 3.83-.073 15.343-.047 30.687-.047 46.031v2.65h-15.808V67.952h14.893l.48 7.883c.826-.79 1.395-1.32 1.946-1.867 7.463-7.413 20.03-9.766 29.626-5.42 7.328 3.318 10.27 9.697 11.37 17.18.366 2.493.472 5.042.479 7.566.043 14.499.021 28.999.021 43.499v2.585h-16.051V95.245ZM17.848 140.761c-7.42-2.808-12.617-8.106-15.525-15.302-7.2-17.817 3.503-36.302 22.532-39.362.599-.096 1.218-.098 1.828-.098 16.954.011 33.908.028 51.07.238-1.322 1.825-2.748 3.575-4.405 5.067a890.018 890.018 0 0 1-15.096 13.282c-5.71 4.913-11.518 9.711-17.238 14.613-5.65 4.842-11.253 9.738-16.854 14.637a126.344 126.344 0 0 0-5.547 5.119c-.43.424-.52 1.195-.765 1.806Zm486.71-1.114c-7.25-2.221-10.338-9.721-10.39-15.934-.118-13.955-.09-27.911-.127-41.867-.002-.602-.065-1.203-.115-2.065h-11.512V67.838h11.593V50.52h16.103v17.23h12.44v11.926h-12.413v2.632c0 12.04-.006 24.08.002 36.12.006 7.638 2.089 9.563 9.667 8.942.979-.08 1.951-.255 3.287-.434 0 3.916.035 7.71-.052 11.501-.009.394-.682 1.012-1.141 1.119-5.707 1.324-11.435 2.07-17.342.091ZM5.66 45.127c-1.428-2.546-3.328-4.938-4.21-7.663C-4.024 20.558 6.628 4.213 22.845.657 24.398.317 26 .02 27.581.012c8.391-.04 16.783.018 25.317.248-1.405.674-3.228.773-4.44 1.688-2.097 1.583-3.828 3.659-5.692 5.55-5.765 5.846-11.493 11.73-17.289 17.545-3.379 3.39-6.917 6.622-10.281 10.026-3.246 3.285-6.362 6.7-9.535 10.058Zm100.769-38.82c3.939 2.531 7.879 5.062 11.716 7.755-2.673 2.472-5.338 4.69-7.795 7.117-3.345 3.305-6.473 6.831-9.803 10.152-4.144 4.133-8.423 8.129-12.594 12.234-1.407 1.385-2.602 2.984-4 4.378-2.579 2.568-5.262 5.03-7.83 7.607-.356.357-.309 1.118-.448 1.692-5.824.024-11.648.048-17.679-.133.051-.745.19-1.401.585-1.806 5.73-5.866 11.455-11.738 17.26-17.528 4.673-4.66 9.483-9.18 14.175-13.821a1390.883 1390.883 0 0 0 15.39-15.478c.528-.538.691-1.437 1.023-2.169Z"/>
  <path fill="#000" d="M106.329 6.183c-.234.856-.396 1.755-.924 2.293a1390.655 1390.655 0 0 1-15.39 15.478c-4.692 4.64-9.503 9.16-14.175 13.82-5.806 5.791-11.53 11.663-17.26 17.53-.395.404-.534 1.06-.79 1.746-5.064.189-10.13.23-15.401.067-.151-.423-.166-.714-.029-.852 4.318-4.324 8.648-8.634 12.98-12.943 8.995-8.947 17.996-17.889 26.986-26.842 1.07-1.066 2.077-2.197 3.13-3.282 3.487-3.598 6.983-7.19 10.476-10.783 3.433 1.215 6.865 2.43 10.397 3.768ZM17.984 140.862c.105-.712.195-1.483.625-1.907a126.965 126.965 0 0 1 5.547-5.119c5.6-4.899 11.204-9.795 16.853-14.637 5.72-4.902 11.528-9.7 17.238-14.613a889.565 889.565 0 0 0 15.097-13.281c1.657-1.492 3.083-3.243 4.619-5.035 4.315.11 8.624.38 13.118.858-.217.816-.514 1.537-1.036 2.01-1.406 1.274-2.936 2.41-4.367 3.658-4.013 3.502-7.981 7.057-12.005 10.546-5.055 4.383-10.157 8.713-15.223 13.084-4.318 3.725-8.615 7.476-12.92 11.216-4.824 4.191-9.68 8.346-14.433 12.616-.693.623-.893 1.797-1.322 2.716-4.033.206-7.91-.499-11.79-2.112Zm58.606 2.168c-4.906.013-9.812.026-14.93-.151.23-.874.549-1.691 1.13-2.218 4.117-3.729 8.272-7.417 12.445-11.084a7725.082 7725.082 0 0 1 21.12-18.483c2.98-2.6 6.069-5.077 8.964-7.766 2.605-2.418 5.015-5.05 7.647-7.563.474.164.811.305 1.238.575a290.63 290.63 0 0 0 4.942 3.905c.78.84 1.56 1.68 2.209 2.688-.722.633-1.336 1.071-1.901 1.565-3.951 3.453-7.875 6.937-11.84 10.375a3649.406 3649.406 0 0 1-15.377 13.235c-3.744 3.211-7.59 6.31-11.225 9.641-1.678 1.536-2.96 3.507-4.421 5.281Z"/>
  <path fill="#000" d="M95.795 2.317c-3.355 3.691-6.85 7.282-10.34 10.88-1.051 1.086-2.058 2.217-3.128 3.283-8.99 8.953-17.99 17.895-26.986 26.842a5332.536 5332.536 0 0 0-12.98 12.942c-.138.138-.123.43-.177.796a97.123 97.123 0 0 1-10.36.01c.168-1.085.345-2.145.958-2.78 4.01-4.149 8.114-8.206 12.187-12.293 12.744-12.786 25.502-25.56 38.2-38.39.796-.805 1.134-2.066 1.684-3.114 3.602.575 7.203 1.151 10.942 1.824ZM5.71 45.286c3.125-3.517 6.24-6.932 9.487-10.217 3.364-3.404 6.902-6.636 10.281-10.026 5.796-5.815 11.524-11.7 17.29-17.546 1.863-1.89 3.594-3.966 5.691-5.55 1.212-.914 3.035-1.014 4.645-1.624a39.79 39.79 0 0 1 6.347-.049c.992.317 1.717.44 2.426.728-2.48 2.918-4.846 5.767-7.43 8.403-3.239 3.306-6.72 6.373-9.98 9.66-4.827 4.87-9.533 9.86-14.33 14.762-1.117 1.141-2.45 2.069-3.58 3.197-4.106 4.095-8.205 8.2-12.215 12.388-.734.767-1.044 1.943-1.55 2.93-2.344-2.3-4.688-4.598-7.081-7.056Zm71.09 97.777c1.25-1.808 2.533-3.778 4.21-5.315 3.636-3.33 7.481-6.429 11.226-9.64a3639.506 3639.506 0 0 0 15.377-13.236c3.964-3.437 7.889-6.921 11.839-10.375.566-.494 1.179-.931 1.927-1.412 2.631 2.932 5.105 5.879 7.438 9.001-.624.361-1.207.432-1.575.752-5.027 4.376-10.005 8.808-15.034 13.181-3.61 3.14-7.347 6.136-10.899 9.34-3.464 3.126-6.766 6.433-10.14 9.661-4.602-1.503-9.32-2.151-14.368-1.957Zm36.03-47.322c-2.495 2.538-4.905 5.169-7.51 7.587-2.896 2.689-5.984 5.167-8.963 7.766a7725.04 7725.04 0 0 0-21.12 18.483 1110.864 1110.864 0 0 0-12.446 11.084c-.581.527-.9 1.344-1.342 2.185a110.68 110.68 0 0 1-10.804.035c.299-.911.697-1.757 1.339-2.328 4.435-3.944 8.93-7.821 13.388-11.738 3.068-2.696 6.087-5.449 9.17-8.128 3.846-3.343 7.745-6.625 11.605-9.953 4.264-3.675 8.563-7.314 12.745-11.082 2.648-2.386 5.111-4.978 7.657-7.479.447.108.893.216 1.607.445a64.64 64.64 0 0 1 2.969 1.74c.643.528 1.174.956 1.705 1.383Z"/>
  <path fill="#000" d="M84.64.441c-.34 1.1-.677 2.361-1.473 3.165-12.699 12.832-25.456 25.605-38.2 38.391-4.074 4.087-8.178 8.144-12.188 12.293-.613.635-.79 1.695-1.16 2.713-2.988-.068-5.984-.29-9.096-.785.212-.775.467-1.35.877-1.77 5.292-5.419 10.57-10.851 15.922-16.21a6392.15 6392.15 0 0 1 26.51-26.367c2.263-2.24 4.662-4.34 6.947-6.557 1.403-1.36 3.163-2.557 2.885-4.927 2.922 0 5.843.002 8.976.054ZM29.992 143.012c.217-.957.417-2.131 1.11-2.754 4.753-4.27 9.61-8.425 14.433-12.616 4.305-3.74 8.602-7.491 12.92-11.217 5.067-4.37 10.168-8.7 15.223-13.083 4.024-3.49 7.992-7.044 12.006-10.546 1.43-1.248 2.96-2.384 4.367-3.658.521-.473.819-1.194 1.223-1.967 2.347.388 4.69.94 7.17 1.733-1.87 2.07-3.863 3.91-5.882 5.724-4.414 3.965-8.79 7.973-13.273 11.859-7.06 6.121-14.218 12.128-21.29 18.235a1250.277 1250.277 0 0 0-17.639 15.505c-.713.64-.949 1.814-1.405 2.741-2.917.027-5.834.055-8.963.044ZM75.88 57.296c-.069-.628-.116-1.39.24-1.746 2.568-2.577 5.251-5.04 7.83-7.608 1.398-1.393 2.593-2.993 4-4.377 4.171-4.106 8.45-8.102 12.594-12.234 3.33-3.321 6.458-6.847 9.803-10.152 2.457-2.428 5.122-4.645 7.857-6.975 1.565 1.312 2.967 2.643 4.318 4.291a845.776 845.776 0 0 1-16.794 17.756c-1.901 1.955-4.005 3.71-5.948 5.627-3.122 3.079-6.256 6.151-9.252 9.352-1.884 2.012-3.525 4.253-5.276 6.391-3.054-.09-6.108-.18-9.371-.325Zm-62.962-4.85c.383-1.091.692-2.268 1.427-3.035 4.01-4.188 8.108-8.292 12.214-12.387 1.131-1.129 2.463-2.056 3.58-3.197 4.797-4.901 9.504-9.892 14.331-14.762 3.26-3.288 6.74-6.354 9.98-9.66C57.033 6.769 59.4 3.92 61.983.949c.204-.341.29-.467.374-.593 2.153-.008 4.306-.016 6.67.179-.106.94-.25 1.848-.773 2.387-3.77 3.885-7.618 7.694-11.44 11.529-5.004 5.02-9.996 10.053-15.013 15.06-7.662 7.65-15.357 15.265-22.982 22.95-.574.579-.7 1.604-1.034 2.422a261.309 261.309 0 0 1-4.867-2.437Z"/>
  <path fill="#000" d="M17.902 54.993c.217-.927.343-1.953.917-2.531 7.625-7.686 15.32-15.302 22.982-22.95 5.017-5.008 10.01-10.04 15.014-15.06 3.821-3.835 7.669-7.645 11.439-11.53.523-.538.667-1.447.986-2.359 2.001-.196 4.002-.216 6.214-.207.49 2.401-1.27 3.597-2.673 4.958-2.285 2.218-4.684 4.318-6.947 6.557a6398.314 6398.314 0 0 0-26.51 26.367c-5.352 5.36-10.63 10.792-15.922 16.21-.41.42-.665.995-1.023 1.675-1.474-.222-2.917-.621-4.477-1.13Zm88.559 37.059c-2.459 2.621-4.922 5.214-7.57 7.6-4.183 3.768-8.481 7.406-12.745 11.082-3.86 3.327-7.759 6.609-11.606 9.952-3.083 2.679-6.101 5.432-9.17 8.128-4.458 3.918-8.952 7.795-13.388 11.738-.641.571-1.04 1.418-1.551 2.297a30.008 30.008 0 0 1-5.763-.014c0-.906-.004-1.836.455-2.257a424.8 424.8 0 0 1 10.263-9.059c5.885-5.045 11.85-9.998 17.705-15.076 5.494-4.764 10.863-9.671 16.339-14.455 4.404-3.847 8.886-7.605 13.334-11.403 1.203.45 2.407.898 3.697 1.468ZM85.398 57.707c1.605-2.224 3.247-4.465 5.13-6.477 2.996-3.2 6.13-6.273 9.252-9.353 1.943-1.916 4.047-3.671 5.948-5.627 5.616-5.778 11.166-11.62 16.813-17.607a39.524 39.524 0 0 1 4.457 5.037c-.678.571-1.301.888-1.771 1.359a13392.053 13392.053 0 0 0-32.273 32.393c-.56.564-.868 1.38-1.294 2.077a332.806 332.806 0 0 1-6.262-1.802Z"/>
  <path fill="#000" d="M102.67 90.45c-4.354 3.933-8.836 7.691-13.24 11.539-5.477 4.783-10.846 9.691-16.339 14.454-5.856 5.078-11.82 10.031-17.705 15.076a424.841 424.841 0 0 0-10.263 9.06c-.46.42-.455 1.351-.664 2.216-1.696.199-3.393.227-5.299.214.249-.968.485-2.142 1.198-2.781a1243.985 1243.985 0 0 1 17.64-15.506c7.071-6.107 14.229-12.114 21.289-18.234 4.482-3.886 8.859-7.894 13.273-11.86a186.49 186.49 0 0 0 6.035-5.639c1.34.338 2.66.831 4.075 1.46Zm27.296-62.503c.876 1.564 1.753 3.127 2.563 4.992-.982.97-2.001 1.533-2.795 2.325a8104.969 8104.969 0 0 0-27.939 28.03c-.561.565-.906 1.345-1.352 2.025-1.308-1.015-2.617-2.03-4.017-3.335.334-.976.649-1.777 1.204-2.337a9625.503 9625.503 0 0 1 30.279-30.38c.564-.562 1.366-.885 2.057-1.32Zm6.773 17.084c.431 2.504.861 5.008 1.046 7.675-1.34.906-2.587 1.495-3.501 2.416-4.541 4.57-8.991 9.233-13.481 13.854a316.035 316.035 0 0 1-4.311 4.346c-2.577 2.55-5.168 5.086-7.753 7.628-.743-2.287-1.485-4.573-2.063-7.075.795-.718 1.483-1.165 2.049-1.734 2.792-2.8 5.525-5.66 8.33-8.447 2.312-2.296 4.742-4.473 7.034-6.788 2.778-2.807 5.398-5.773 8.221-8.532 1.313-1.283 2.943-2.239 4.429-3.343Z"/>
  <path fill="#000" d="M100.508 65.458c.38-.819.726-1.599 1.287-2.164a8008.115 8008.115 0 0 1 27.939-28.03c.793-.792 1.813-1.355 2.81-2.164.891 1.75 1.7 3.639 2.345 5.728-.925.638-1.819.943-2.422 1.543-1.505 1.496-2.811 3.193-4.317 4.688-2.991 2.969-6.083 5.834-9.094 8.783-2.972 2.91-5.944 5.823-8.822 8.825-2.135 2.226-4.12 4.597-6.171 6.904-1.163-1.325-2.327-2.65-3.555-4.113Zm29.421-37.667c-.651.59-1.452.914-2.016 1.476a9436.724 9436.724 0 0 0-30.279 30.38c-.555.56-.87 1.36-1.295 2.213-1.481-.61-2.965-1.385-4.562-2.255.312-.794.621-1.609 1.181-2.173a13502.26 13502.26 0 0 1 32.273-32.393c.47-.47 1.093-.788 1.813-1.203 1.061 1.25 1.953 2.524 2.885 3.955ZM103.633 154.71c-1.183-1.284-2.367-2.568-3.586-4.149 4.429-4.295 8.867-8.326 13.367-12.285 5.478-4.821 10.99-9.604 16.535-14.348 1.131-.967 2.475-1.685 3.721-2.518.719 1.749 1.438 3.498 1.974 5.426-.821.543-1.53.824-2.084 1.29-1.572 1.325-3.06 2.751-4.619 4.093-7.27 6.252-14.571 12.467-21.813 18.751-1.281 1.112-2.335 2.486-3.495 3.74Z"/>
  <path fill="#000" d="M104.098 69.723c2.02-2.459 4.005-4.83 6.14-7.056 2.878-3.002 5.85-5.915 8.822-8.825 3.011-2.949 6.103-5.814 9.094-8.783 1.506-1.494 2.812-3.192 4.316-4.688.604-.6 1.498-.905 2.444-1.364.749 1.872 1.313 3.763 1.854 5.84-1.51 1.289-3.14 2.245-4.453 3.527-2.823 2.76-5.443 5.725-8.221 8.533-2.292 2.315-4.722 4.492-7.034 6.788-2.805 2.787-5.538 5.646-8.33 8.447-.566.568-1.254 1.015-2.073 1.55-.968-1.25-1.748-2.534-2.559-3.969Zm4.621 11.42c2.609-2.735 5.2-5.27 7.777-7.82a314.913 314.913 0 0 0 4.311-4.347c4.49-4.621 8.94-9.283 13.481-13.854.914-.92 2.161-1.51 3.447-2.253a39.92 39.92 0 0 1 .202 7.174c-1.027.746-1.932 1.172-2.6 1.837-7.855 7.83-15.668 15.702-23.519 23.535-.621.62-1.447 1.032-2.182 1.346-.232-1.3-.46-2.405-.687-3.51a32.598 32.598 0 0 1-.23-2.108Z"/>
  <path fill="#000" d="M109.639 86.956c.731-.509 1.557-.922 2.178-1.541 7.851-7.833 15.664-15.706 23.519-23.535.668-.665 1.573-1.091 2.531-1.632-.118 2.683-.4 5.37-.948 8.198-.891.536-1.613.832-2.124 1.341a5752.095 5752.095 0 0 0-22.548 22.62c-.512.517-.827 1.23-1.233 1.852-.864-.507-1.728-1.014-2.686-1.636.106-1.226.307-2.337.717-3.682.338-.817.466-1.4.594-1.985Zm-5.971 67.903c1.119-1.403 2.174-2.777 3.455-3.889 7.242-6.284 14.543-12.499 21.812-18.752 1.56-1.341 3.047-2.767 4.62-4.092.553-.466 1.262-.747 2.069-1.114a22.403 22.403 0 0 1 1.29 4.901c-.977.592-1.892.868-2.552 1.441-5.172 4.488-10.291 9.037-15.433 13.559-4.34 3.816-8.689 7.622-13.035 11.433-.728-1.112-1.457-2.225-2.226-3.487Zm28.607 13.463c-5.04 10.52-12.641 18.695-22.764 24.372-3.283 1.841-6.99 2.919-10.683 4.212.855-1.326 1.772-2.652 2.944-3.686 6.769-5.969 13.587-11.882 20.412-17.785a321.565 321.565 0 0 1 8.549-7.144c.308-.248 1.018.008 1.542.031Z"/>
  <path fill="#000" d="M105.926 158.514c4.32-3.978 8.67-7.785 13.01-11.601 5.142-4.522 10.261-9.071 15.433-13.559.659-.573 1.574-.849 2.533-1.267.448 1.72.735 3.443.81 5.345-.704.333-1.31.354-1.671.664-2.654 2.277-5.247 4.627-7.884 6.927-4.296 3.746-8.625 7.454-12.911 11.211-2.507 2.196-4.959 4.456-7.435 6.688-.62-1.414-1.24-2.827-1.885-4.408Zm27.734-37.278c-1.235 1.006-2.579 1.724-3.71 2.692a1565.12 1565.12 0 0 0-16.535 14.347c-4.5 3.96-8.938 7.99-13.434 12.15-.9-.51-1.77-1.181-2.7-2.158.183-.843.294-1.529.695-1.893 2.31-2.1 4.688-4.125 7.045-6.173 6.723-5.842 13.404-11.735 20.198-17.493 2.158-1.829 4.622-3.294 6.946-4.926.495 1.094.99 2.188 1.495 3.454Zm-1.259 46.964c-.643.099-1.354-.157-1.661.091a319.97 319.97 0 0 0-8.549 7.144c-6.826 5.904-13.643 11.816-20.412 17.785-1.173 1.034-2.089 2.361-3.126 3.717a74.707 74.707 0 0 1-6.436 2.28c-.784.239-1.629.277-2.59.284-.152-.275-.166-.428-.186-.58 7.906-2.747 13.562-7.985 17.399-15.652.714-.227 1.239-.241 1.548-.508 3.737-3.228 7.449-6.485 11.154-9.75 4.049-3.567 8.041-7.2 12.152-10.692 1.101-.936 2.547-1.463 3.835-2.178-1.003 2.646-2.006 5.291-3.128 8.059ZM91.29 145.133c3.255-3.341 6.557-6.648 10.022-9.774 3.551-3.203 7.288-6.2 10.898-9.34 5.029-4.373 10.008-8.805 15.034-13.18.368-.321.951-.392 1.613-.595a9.354 9.354 0 0 1 1.711 2.705c-6.467 5.494-12.871 10.716-19.164 16.07-5.319 4.525-10.518 9.192-15.741 13.829-.523.464-.846 1.155-1.262 1.74a74.419 74.419 0 0 1-3.112-1.455Zm46.819-2.928c-.013 1.732-.025 3.465-.311 5.364-.766.321-1.37.343-1.736.65-2.385 2.001-4.715 4.067-7.07 6.104-5.397 4.667-10.782 9.35-16.215 13.975-.937.797-2.088 1.341-3.182 1.911-.203-.195-.364-.299-.525-.404-.123-.933-.246-1.865-.238-3.074.197-.53.263-.784.489-1.054a147.972 147.972 0 0 0 5.734-4.708c5.591-4.833 11.117-9.745 16.775-14.497 1.929-1.619 4.177-2.856 6.279-4.267Z"/>
  <path fill="#000" d="M135.635 160.011c-1.393.845-2.839 1.372-3.94 2.308-4.111 3.492-8.103 7.125-12.152 10.692a1495.545 1495.545 0 0 1-11.154 9.75c-.308.267-.833.281-1.432.403.457-2.177 1.088-4.343 1.912-6.712.735-.477 1.359-.654 1.806-1.039 6.868-5.922 13.684-11.904 20.581-17.792 1.863-1.591 3.952-2.916 5.937-4.363-.484 2.208-.968 4.415-1.558 6.753Z"/>
  <path fill="#000" d="M137.275 153.09c-2.075 1.615-4.164 2.939-6.027 4.53-6.896 5.888-13.713 11.87-20.581 17.792-.446.386-1.071.563-1.772.855-.072-1.238.017-2.493.299-4.033.275-.835.356-1.385.437-1.934 1.052-.661 2.203-1.205 3.14-2.003 5.433-4.624 10.818-9.307 16.215-13.974 2.356-2.037 4.685-4.104 7.07-6.104.367-.307.97-.329 1.655-.482.012 1.73-.167 3.458-.436 5.353Zm-18.052-52.982a36.898 36.898 0 0 1-4.871-3.838c.696-.95 1.286-1.748 1.978-2.446 5.101-5.145 10.194-10.298 15.361-15.375.889-.874 2.116-1.402 3.187-2.09-3.198 8.355-7.448 16.037-14.082 22.197a32.72 32.72 0 0 0-1.573 1.552Zm18.93 41.891c-2.147 1.617-4.395 2.853-6.323 4.473-5.659 4.752-11.184 9.663-16.775 14.497a95.997 95.997 0 0 1-5.852 4.707c-.434.011-.59.008-.747.005-.219-.802-.438-1.603-.651-2.582a197.014 197.014 0 0 1 7.44-6.866c4.286-3.756 8.615-7.464 12.911-11.211 2.637-2.299 5.23-4.649 7.884-6.926.361-.31.967-.331 1.616-.487.284 1.393.413 2.788.497 4.39Z"/>
  <path fill="#000" d="M134.983 76.227c-1.175.82-2.402 1.348-3.291 2.222-5.167 5.077-10.26 10.23-15.361 15.375-.692.698-1.282 1.496-2.068 2.318-.485-.072-.822-.213-1.296-.377-.668-.452-1.2-.88-1.842-1.407.296-.72.61-1.434 1.122-1.95a5814.843 5814.843 0 0 1 22.548-22.62c.511-.51 1.234-.806 2.036-1.19-.462 2.505-1.103 5.001-1.848 7.63ZM94.5 146.69c.314-.687.636-1.378 1.16-1.842 5.222-4.637 10.421-9.304 15.74-13.829 6.293-5.354 12.697-10.576 19.198-15.919.602.745 1.06 1.553 1.54 2.522-2.301 1.792-4.765 3.257-6.923 5.086-6.794 5.758-13.475 11.652-20.198 17.494-2.357 2.048-4.735 4.073-7.045 6.172-.401.365-.512 1.051-.774 1.767-.876-.33-1.736-.84-2.698-1.451Zm15.13-59.929c-.124.78-.253 1.364-.523 2-.173-1.66-.205-3.374-.2-5.299.263.894.491 2 .723 3.3ZM62.222.242c.048.24-.037.365-.225.543-.828-.071-1.553-.195-2.34-.453.768-.158 1.6-.18 2.565-.09Zm47.373 169.967c-.039.64-.12 1.19-.338 1.836-.197-.576-.258-1.248-.253-2.08.227-.056.388.049.591.244ZM89.273 198.91c.186.163.2.315.193.583-.828.245-1.642.376-2.456.507l-.084-.472c.727-.209 1.454-.419 2.347-.618Zm19.153-33.102c.182-.124.339-.121.612-.117.052.256-.014.51-.191.837-.224-.149-.335-.371-.421-.72Z"/>
</svg>
