<svg xmlns="http://www.w3.org/2000/svg" width="796" height="200" fill="none" viewBox="0 0 796 200">
  <g clip-path="url(#a)">
    <mask id="b" width="796" height="200" x="0" y="0" maskUnits="userSpaceOnUse" style="mask-type:luminance">
      <path fill="#fff" d="M796 0H0v200h796V0Z"/>
    </mask>
    <g mask="url(#b)">
      <path fill="#000" d="M109.306.312c.349.207.534.574.758.599 7.915.89 15.553 2.96 22.871 5.997 8.334 3.46 16.324 7.643 23.358 13.41 3.621 2.969 7.352 5.854 10.635 9.172a100.515 100.515 0 0 1 16.216 21.492c4.862 8.648 8.292 17.85 10.513 27.488.826 3.583 1.221 7.283 1.578 10.953.368 3.774.542 7.574.636 11.366.141 5.732-.294 11.441-1.554 17.04-1.119 4.975-2.207 9.982-3.754 14.832-3.331 10.444-8.573 19.913-15.227 28.624-3.531 4.624-7.41 8.922-11.669 12.851-5.575 5.142-11.633 9.669-18.284 13.344-6.47 3.576-13.076 6.896-20.254 8.802-4.543 1.206-9.175 2.073-13.765 3.097-1.013.226-2.022.469-2.939.818-8.308.115-16.71.115-25.26-.018-.977-.355-1.8-.61-2.637-.796-4.59-1.023-9.237-1.842-13.768-3.082-7.248-1.985-14.05-5.118-20.588-8.808-6.792-3.834-13.079-8.411-18.702-13.799-3.62-3.468-6.934-7.278-10.186-11.105a71.28 71.28 0 0 1-9.658-14.695c-2.442-4.964-4.47-10.133-6.7-15.203-.107-.245-.404-.405-.614-.604 0-3.329 0-6.659.118-10.135.353-.491.613-.822.82-1.183 1.168-2.034 2.667-3.766 4.654-5.03 3.237-2.06 6.792-2.578 10.451-1.682 4.112 1.008 7.225 3.397 8.837 7.46 1.158 2.919 2.158 5.909 3.448 8.768 3.037 6.733 6.893 12.999 11.864 18.456 2.97 3.26 6.312 6.2 9.65 9.095 5.472 4.745 11.781 8.199 18.434 10.917 9.11 3.722 18.686 5.326 28.516 5.375 1.218.007 2.437-.187 3.655-.297 2.28-.207 4.627-.146 6.825-.686 5.035-1.238 10.068-2.566 14.964-4.255 3.426-1.182 6.81-2.726 9.879-4.644 3.831-2.396 7.544-5.092 10.897-8.116 3.867-3.489 7.531-7.276 10.822-11.311 2.575-3.157 4.444-6.89 6.631-10.364 1.813-2.879 2.566-5.899 1.885-9.353-1.182-5.985-6.237-10.399-12.075-10.703-5.396-.281-9.539 2.308-12.194 7.027-2.95 5.244-5.801 10.567-10.699 14.305-3.192 2.436-6.396 4.936-9.889 6.876-4.742 2.633-9.936 4.078-15.369 4.81-4.86.654-9.695.61-14.455-.151-5.376-.86-10.521-2.645-15.307-5.399-4.414-2.539-8.372-5.567-11.815-9.348a49.572 49.572 0 0 1-8.652-13.197c-2.496-5.559-3.78-11.408-3.913-17.409-.091-4.087.35-8.276 1.22-12.275 2.572-11.842 8.991-21.293 18.828-28.32 7.219-5.157 15.364-7.986 24.189-8.631 4.898-.358 9.794.05 14.597 1.21 3.991.963 7.885 2.252 11.393 4.398 3.121 1.909 6.204 3.933 9.047 6.225 2.105 1.697 4.057 3.723 5.617 5.929 2.449 3.461 4.447 7.239 6.752 10.806 2.258 3.493 8.399 5.622 12.443 4.584 3.727-.956 6.731-2.85 8.67-6.242 1.568-2.74 2.568-5.666 1.545-8.801a43.526 43.526 0 0 0-2.908-6.852c-2.838-5.344-6.536-10.097-10.694-14.46-2.224-2.332-4.606-4.558-7.154-6.525-3.413-2.637-6.909-5.23-10.633-7.386a63.34 63.34 0 0 0-19.688-7.391c-4.262-.828-8.609-1.32-12.942-1.642-2.853-.212-5.758.03-8.621.283-3.17.28-6.372.565-9.463 1.272-7.326 1.678-14.343 4.242-20.88 8.041-8.522 4.952-15.86 11.223-21.91 19.047-5.173 6.688-9.276 13.978-11.783 22.008-1.575 5.043-6.928 9.848-13.04 9.503-4.874-.276-8.514-2.074-11.075-6.187-.438-.704-.991-1.337-1.492-2.002 0-3.33 0-6.66.124-10.136.246-.272.425-.374.486-.525 1.414-3.51 2.653-7.103 4.252-10.526C9.24 48.615 14.471 40.62 20.9 33.502c5.554-6.151 11.672-11.739 18.594-16.365 5.622-3.757 11.518-6.994 17.782-9.565 7.9-3.243 16.02-5.626 24.514-6.66.224-.028.408-.393.611-.6h26.906Zm687.007 139.729c-.516.858-1.079 1.543-1.542 2.287-2.403 3.84-5.867 5.565-10.373 5.689-4.067.111-7.727-.681-10.385-3.926-1.244-1.521-2.205-3.339-2.994-5.153-1.092-2.504-1.897-5.133-2.836-7.747H733.24c-.936 2.562-1.86 5.186-2.849 7.785-1.629 4.284-4.157 7.795-8.933 8.732-7.217 1.415-13.892-1.361-15.525-9.376-.591-2.896-.211-5.955 1.029-8.836 2.332-5.405 4.469-10.891 6.741-16.319 2.081-4.964 4.276-9.879 6.347-14.847 2.991-7.181 5.88-14.407 8.886-21.583 2.08-4.971 4.008-10.039 6.518-14.792 2.761-5.236 7.083-8.643 13.283-9.358 3.613-.416 7.011-.167 10.385 1.203 3.517 1.427 6.272 3.77 7.923 7.1 2.276 4.594 4.232 9.351 6.25 14.071 2.195 5.137 4.312 10.31 6.452 15.47 2.005 4.837 3.992 9.682 6.001 14.517 2.375 5.714 4.76 11.422 7.142 17.132 1.07 2.564 2.148 5.125 3.324 7.597.099 3.342.099 6.775.099 10.354ZM755.571 96.18c-.202-.405-.448-.795-.6-1.218-1.153-3.19-2.273-6.39-3.442-9.574-.134-.363-.494-.643-.749-.961-.265.317-.632.594-.771.958-.47 1.208-.843 2.453-1.278 3.673-1.341 3.757-2.653 7.524-4.052 11.258-1.278 3.412-2.655 6.787-3.983 10.166h20.046c-1.763-4.795-3.461-9.422-5.171-14.302ZM534.192 85.67c0 16.562.094 32.969-.056 49.373-.043 5.081-1.862 9.648-6.881 11.848-5.833 2.558-14.129 1.41-17.58-5.494a12.059 12.059 0 0 1-1.234-5.052c-.122-8.511-.056-17.024-.056-25.645h-32.96v1.4c0 7.477-.04 14.953.019 22.429.025 3.624-.855 6.937-3.277 9.634-1.885 2.099-4.397 3.49-7.192 3.744-3.219.292-6.462.28-9.481-1.46-3.89-2.242-6.085-5.688-6.113-9.946a5808.911 5808.911 0 0 1-.012-72.425c.034-5.661 4.272-10.512 10.46-11.468 3.84-.592 7.269.037 10.488 2.195 2.733 1.834 4.35 4.473 4.723 7.59.429 3.618.332 7.305.373 10.963.053 4.562.012 9.125.012 13.78h32.888c.025-.413.069-.86.069-1.306.006-7.165.08-14.331-.022-21.494-.078-5.381 4.595-10.91 10.251-11.73 3.924-.568 7.519-.111 10.765 2.238 2.77 2.005 4.282 4.927 4.431 8.169.342 7.49.283 15 .385 22.657Zm-110.149 9.15c1.125 2.688 2.183 5.271 3.246 7.852 2.052 4.982 4.132 9.951 6.15 14.946 1.72 4.252 3.725 8.431 4.969 12.823 1.987 7.008.308 13.329-6.399 16.513-4.216 2.002-11.716 1.753-15.32-2.583-1.11-1.336-2.086-2.861-2.78-4.45-1.237-2.827-2.21-5.769-3.33-8.768h-12.338c-6.996 0-13.989.013-20.982-.016-.923-.003-1.334.21-1.701 1.195-1.275 3.401-2.5 6.864-4.225 10.041-3.138 5.779-8.874 6.462-14.356 5.137-5.184-1.253-8.557-6.43-8.48-11.469.05-3.301 1.117-6.208 2.323-9.136a2574.112 2574.112 0 0 1 6.449-15.472c1.598-3.819 3.227-7.626 4.826-11.446 2.232-5.337 4.449-10.682 6.679-16.021 1.962-4.696 3.958-9.377 5.889-14.086 1.498-3.655 2.817-7.377 5.276-10.567 2.914-3.782 6.583-6.066 11.378-6.709 3.557-.477 6.899-.166 10.229 1.189 3.477 1.414 6.138 3.746 7.914 6.95 1.638 2.96 3.003 6.084 4.331 9.204 2.146 5.048 4.154 10.154 6.234 15.23 1.303 3.184 2.634 6.358 4.018 9.642Zm-37.546 7.539c-.964 2.694-1.925 5.388-2.923 8.182h19.552l-9.505-27.238c-.93 2.51-1.683 4.588-2.466 6.655-1.542 4.054-3.1 8.1-4.658 12.401Zm186.564 24.744c0 2.802.084 5.453-.018 8.096-.212 5.609-2.973 10.614-8.616 12.183-5.243 1.456-10.324 1.017-14.3-3.279-1.984-2.144-3.175-4.775-3.175-7.778-.016-23.875-.075-47.75.034-71.624.028-6.135 4.838-11.064 10.631-11.365 7.211-.375 14.449-.285 21.675-.37a379.57 379.57 0 0 1 9.167 0c5.336.066 10.662.504 15.721 2.231 5.973 2.04 11.035 5.485 15.08 10.488 3.458 4.277 5.532 9.13 6.272 14.437.995 7.119.715 14.239-2.742 20.793-4.596 8.712-11.617 14.476-21.154 17.196-4.589 1.309-9.234 1.813-13.964 1.824-4.813.011-9.623.002-14.611.002v7.166Zm0-48.747v20.087c5.588 0 11.004.204 16.396-.062 4.655-.23 9.325-4.31 10.158-9.412.843-5.138-2.083-10.83-7.17-12.665-2.466-.89-4.984-1.232-7.577-1.228-3.915.006-7.833.002-11.807.002v3.278Zm-288.47 39.948c3.592 3.482 7.782 5.316 12.628 6.048 4.894.74 9.494-.093 13.874-2.055 2.301-1.032 4.344-2.676 6.433-4.147 5.075-3.577 13.19-3.143 17.223 2.183 2.519 3.327 2.889 7.179 1.791 11.235-1.266 4.678-4.748 7.395-8.485 9.839-5.433 3.552-11.39 5.799-17.859 6.56-3.077.362-6.165.902-9.247.894-10.886-.03-21.285-2.252-30.226-8.767-9.289-6.768-15.558-15.82-18.193-27.135-.72-3.09-.909-6.308-1.283-9.474-.757-6.41.294-12.651 2.226-18.706 1.799-5.636 4.799-10.66 8.645-15.21 3.106-3.674 6.39-7.105 10.425-9.748 5.59-3.663 11.68-6.008 18.268-7.214 4.677-.857 9.374-1.113 14.069-.85 9.058.509 17.693 2.7 25.143 8.129 7.049 5.137 7.748 13.542 2.605 19.702-1.875 2.246-4.533 3.344-7.552 3.622-4.301.397-7.855-1.27-11.284-3.559-3.553-2.372-7.489-3.542-11.773-3.656-3.845-.102-7.593.217-11.122 1.889-3.225 1.528-5.986 3.593-8.34 6.357-2.974 3.491-4.697 7.5-5.402 11.901-.726 4.54-.263 9.041 1.408 13.41 1.3 3.399 3.313 6.233 6.028 8.752Zm347.757 3.756c4.076-4.356 10.662-4.981 16.057-1.193 3.803 2.67 7.73 5.003 12.294 6.038 3.097.703 6.228 1.189 9.313-.12 3.51-1.492 5.273-5.215 2.089-8.75-2.052-2.278-4.574-3.865-7.226-5.22-4.26-2.18-8.703-4.007-12.922-6.261-3.035-1.622-5.787-3.767-8.741-5.551-3.585-2.164-5.656-5.556-7.459-9.109-1.583-3.12-2.261-6.499-2.429-10.046-.193-4.09.146-8.042 1.617-11.86 1.583-4.11 4.188-7.434 7.59-10.247 3.109-2.57 6.511-4.576 10.311-5.754 2.951-.915 6.038-1.465 9.101-1.916 2.273-.336 4.608-.383 6.912-.335 8.918.187 17.201 2.64 24.415 7.906 6.091 4.448 6.763 11.564 2.338 17.337-1.496 1.951-3.793 2.885-6.331 3.097-3.675.306-6.744-.98-9.738-3.03-3.871-2.651-8.19-4.299-12.997-4.133-2.289.08-4.472.743-5.762 2.768-1.663 2.613-.463 5.622 2.357 7.795 4.254 3.278 9.347 4.906 14.104 7.2a68.538 68.538 0 0 1 13.569 8.636c4.307 3.501 7.255 7.711 8.809 12.97 1.057 3.572 1.076 7.18.669 10.883-.501 4.532-2.177 8.551-4.786 12.151-3.501 4.829-8.208 8.227-13.712 10.459-4.571 1.852-9.331 2.663-14.284 2.89-6.804.312-13.411-.432-19.844-2.574-5.818-1.935-11.039-4.927-15.211-9.513-2.345-2.58-2.945-5.785-2.323-9.079.351-1.856 1.402-3.579 2.22-5.439Z"/>
    </g>
  </g>
  <defs>
    <clipPath id="a">
      <path fill="#fff" d="M0 0h796v200H0z"/>
    </clipPath>
  </defs>
</svg>
