<svg xmlns="http://www.w3.org/2000/svg" width="685" height="200" fill="none" viewBox="0 0 685 200">
  <g clip-path="url(#a)">
    <path fill="#000" d="M280.93 87.606c-4.508 0-9.017-.845-12.68-2.254-3.663-1.408-7.326-3.944-10.144-6.76-2.818-2.817-5.072-6.198-6.481-10.423-1.409-4.225-2.254-8.169-2.254-12.958 0-4.788.845-9.014 2.254-12.957 1.691-3.944 3.945-7.324 6.763-10.141s6.199-5.07 10.144-6.76c3.945-1.691 8.171-2.254 12.68-2.254 4.508 0 9.017.845 12.962 2.535 3.945 1.69 7.326 3.944 10.144 7.042 2.817 3.099 4.79 6.76 6.199 10.986l-14.653 4.507c-1.409-3.944-3.099-6.76-5.635-8.732-2.536-1.69-5.354-2.535-8.735-2.535-3.382 0-6.199.844-8.454 2.253-2.254 1.408-4.226 3.662-5.635 6.197-1.409 2.817-1.973 5.916-1.973 9.86 0 3.943.564 6.76 1.973 9.858 1.409 2.817 3.099 4.79 5.635 6.48 2.255 1.69 5.072 2.253 8.454 2.253 3.381 0 6.762-.845 9.298-2.817 2.536-1.972 4.509-4.789 5.636-8.732l14.934 3.38c-1.127 4.507-3.099 8.45-6.199 11.55-2.818 3.38-6.199 5.633-10.426 7.605-3.945 1.69-8.453 2.535-13.243 2.535l-.564.282Zm38.605-.846V36.62h15.216v50.14h-15.216Zm12.68-21.408 2.254-16.62c1.127-3.943 2.818-7.042 5.636-9.295 2.818-2.254 6.199-3.38 10.426-3.38v16.056h-3.382c-2.254 0-4.226.563-6.199 1.69-1.972 1.127-3.381 2.535-4.508 4.507-1.127 1.972-1.691 4.507-1.691 7.606h-2.254l-.282-.564Zm50.438 22.254a32.37 32.37 0 0 1-10.426-1.69c-3.381-1.127-6.199-2.817-8.735-5.07-2.536-2.254-4.508-4.79-6.199-7.888-1.409-3.099-2.254-6.76-2.254-10.704 0-3.944.564-7.324 1.972-10.423 1.409-3.098 3.382-5.915 5.636-8.169 2.254-2.253 5.354-4.225 8.453-5.352 3.1-1.127 6.481-1.972 10.144-1.972 3.663 0 5.636.282 8.454 1.127 2.817.845 5.072 1.972 7.326 3.38 2.254 1.409 3.945 3.38 5.072 5.352 1.127 1.972 1.691 4.226 1.691 6.76 0 2.536-.846 5.635-2.537 7.888-1.69 2.254-3.944 3.944-7.044 5.07a53.191 53.191 0 0 1-9.58 2.536c-3.382.563-6.763.563-10.144.563h-4.227c.282 1.409 1.127 2.535 2.254 3.662 1.127 1.127 2.818 1.972 4.509 2.535 1.69.564 3.663.846 5.635.846 1.973 0 3.663-.282 5.636-.846 1.69-.563 3.381-1.408 4.79-2.535 1.409-1.127 2.818-2.253 3.663-3.38l9.862 7.606c-1.69 2.535-3.945 4.507-6.481 5.915-2.536 1.409-5.353 2.817-8.453 3.38-2.818.845-5.917 1.127-9.017 1.127v.282Zm8.454-75.211v11.83L369.41 33.24V22.817l21.697-10.422Zm-16.344 46.478h5.072c1.691 0 3.382-.563 4.791-.845 1.409-.563 2.817-1.126 3.663-1.971.845-.846 1.409-1.69 1.409-3.1 0-1.407-.282-1.97-1.127-2.816-.846-.845-1.691-1.408-2.818-1.69-1.127-.282-2.536-.563-3.945-.563-2.254 0-4.509.563-6.199 1.69a15.086 15.086 0 0 0-4.227 4.225c-.845 1.69-1.409 3.38-1.691 5.07h5.072Zm57.762 28.733c-4.508 0-8.172-1.127-11.553-3.38-3.381-2.254-5.635-5.353-7.608-9.296-1.691-3.944-2.536-8.17-2.536-13.24s.845-9.295 2.536-12.957c1.691-3.944 4.227-7.043 7.608-9.296 3.381-2.254 7.045-3.38 11.553-3.38 4.508 0 7.044 1.126 9.862 3.098 2.818 1.972 4.79 5.07 6.199 8.732V20.564h15.216v66.478h-7.608c-2.254 0-4.226-.563-5.635-1.972-1.409-1.408-1.973-3.38-1.973-5.633v-3.38c-1.127 3.661-3.381 6.478-6.199 8.732a17.084 17.084 0 0 1-9.862 3.098v-.281Zm4.79-13.521c1.973 0 3.945-.564 5.636-1.409 1.69-.845 3.099-2.253 3.945-4.225.845-1.972 1.69-3.944 1.69-6.76 0-2.818-.563-4.79-1.69-6.761-1.128-1.972-2.255-3.38-3.945-4.226-1.691-1.126-3.382-1.408-5.636-1.408s-3.945.563-5.635 1.408c-1.691.845-3.1 2.254-3.945 4.226-.846 1.971-1.409 3.943-1.409 6.76 0 2.817.563 4.789 1.409 6.76.845 1.973 2.254 3.381 3.945 4.226 1.69.845 3.381 1.409 5.635 1.409Zm44.805-42.817c-2.818 0-5.354-.845-7.044-2.535-1.973-1.69-2.818-3.662-2.818-6.197 0-2.536.845-4.79 2.818-6.48 1.972-1.69 4.226-2.535 7.044-2.535 2.818 0 5.072.846 7.044 2.536 1.691 1.69 2.818 3.943 2.818 6.479 0 2.535-.845 4.507-2.818 6.197-1.69 1.69-4.226 2.535-7.044 2.535Zm-7.608 55.493V36.62h15.216v50.14h-15.216Zm47.621.845c-5.635 0-9.862-1.408-12.68-4.507-2.817-3.099-4.508-7.606-4.508-13.24V49.296h-8.172V36.902h33.25v12.394h-9.862v20.845c0 1.409.563 2.535 1.409 3.38.845.846 1.972 1.127 3.381 1.127h1.691c.563 0 1.127-.281 1.409-.563l3.663 11.267c-1.409.846-2.818 1.409-4.509 1.972-1.69.564-3.381.845-5.353.845l.281-.563ZM501 40.846v-3.944c1.409 0 2.254-.564 3.381-1.127.846-.845 1.127-1.972 1.127-3.38v-7.606h14.935v5.352c0 .845 0 1.69-.564 2.817-.563 1.127-1.127 1.69-1.972 2.535-.846.845-1.973 1.127-3.1 1.409l-13.525 3.943H501Zm61.427 46.76c-4.79 0-9.298-1.127-13.243-3.099-3.945-1.972-7.045-5.07-9.299-9.014-2.254-3.943-3.381-8.45-3.381-13.803 0-5.352 1.127-9.859 3.381-13.802 2.254-3.944 5.354-6.76 9.299-8.733 3.945-1.972 8.453-3.098 13.243-3.098 4.791 0 9.299 1.126 13.244 3.098 3.945 1.972 7.044 5.07 9.299 8.733 2.254 3.943 3.381 8.45 3.381 13.802 0 5.353-1.127 9.86-3.381 13.803-2.255 3.944-5.354 6.76-9.299 9.014-3.945 2.254-8.453 3.099-13.525 3.099h.281Zm0-13.24c1.691 0 3.664-.563 5.354-1.408 1.691-.845 2.818-2.254 3.945-4.225 1.127-1.972 1.691-4.226 1.691-7.043 0-2.816-.564-5.07-1.691-7.042-1.127-1.69-2.254-3.098-3.945-3.944-1.69-.845-3.381-1.408-5.072-1.408-1.69 0-3.663.563-5.072 1.409-1.69.845-2.818 2.253-3.945 3.943-1.127 1.69-1.409 4.225-1.409 7.042s.564 5.07 1.409 7.043a9.147 9.147 0 0 0 3.663 4.225c1.691.845 3.382 1.409 5.072 1.409Zm-281.215 26.761 22.543 62.253h-8.736l-20.569-57.746h3.945l-20.57 57.746h-8.735l22.542-62.253h9.58Zm-20.851 41.69h32.123l2.254 6.761h-36.35l1.973-6.761Zm53.537 20.563v-49.296h8.172v49.296h-8.172Zm5.354-25.352 2.818-13.239c1.127-3.662 3.1-6.479 5.917-8.451 2.818-1.972 6.199-3.099 10.144-3.099v8.733h-2.818c-2.536 0-4.79.563-6.762 1.971-1.973 1.409-3.381 3.381-4.79 5.634-1.127 2.254-1.691 5.352-1.691 8.733h-2.818v-.282Zm51.285 49.296c-4.226 0-7.889-.563-10.989-1.972-3.1-1.408-6.199-3.38-8.453-5.633-2.255-2.536-4.227-5.352-5.636-8.451l7.608-3.38c1.691 3.662 3.945 6.76 7.045 9.014 3.099 2.253 6.48 3.38 10.425 3.38 3.945 0 5.636-.563 8.172-1.972 2.254-1.127 4.226-3.098 5.635-5.352 1.409-2.253 1.973-5.07 1.973-8.732v-11.831c-1.409 3.38-3.945 6.197-7.326 8.45-3.382 2.254-7.045 3.099-11.553 3.099-4.509 0-8.454-1.127-11.835-3.099-3.381-2.253-6.199-5.07-8.171-9.014-1.973-3.943-3.1-8.169-3.1-13.239 0-5.071 1.127-9.296 3.1-13.24 1.972-3.661 4.79-6.76 8.171-8.732 3.381-2.253 7.608-3.099 11.835-3.099 4.226 0 8.171 1.127 11.553 3.099 3.381 1.972 5.635 4.789 7.044 8.451v-10.704h8.172v50.14c0 3.381-.564 6.479-1.691 9.296-1.127 2.817-2.818 5.352-4.79 7.324-1.973 1.972-4.509 3.662-7.608 4.789-3.1 1.127-6.199 1.69-9.862 1.69l.281-.282Zm-1.127-30.422c2.818 0 5.636-.564 8.172-2.254 2.536-1.408 4.508-3.38 6.199-6.197 1.69-2.817 2.254-5.915 2.254-9.859s-.845-7.042-2.254-9.859c-1.691-2.817-3.381-4.789-6.199-6.197-2.536-1.409-5.354-2.254-8.172-2.254-2.818 0-5.635.563-8.453 2.254-2.818 1.69-4.509 3.38-6.199 6.197-1.691 2.817-2.254 5.915-2.254 9.859s.845 7.042 2.254 9.859c1.69 2.817 3.663 4.789 6.199 6.197 2.536 1.409 5.354 2.254 8.453 2.254Zm61.991 7.042c-3.945 0-7.327-.563-10.426-1.69-3.1-1.127-5.918-2.817-8.454-5.071-2.536-2.253-4.226-4.788-5.353-7.887-1.127-3.098-1.973-6.479-1.973-10.141s.564-7.324 2.255-10.422c1.408-3.099 3.381-5.916 5.635-8.169 2.254-2.254 5.072-3.944 8.453-5.352 3.382-1.409 6.481-1.691 9.863-1.691 3.381 0 5.917.282 8.453 1.127 2.536.845 4.508 1.972 6.481 3.381a18.446 18.446 0 0 1 4.226 5.07c1.127 1.69 1.691 3.944 1.691 6.197 0 2.254-.845 5.634-2.536 7.887-1.691 1.972-3.945 3.662-6.763 4.789-2.817 1.127-5.917 1.972-9.58 2.254-3.381.563-6.763.563-10.426.563h-8.453c.282 2.254 1.409 4.507 2.818 6.479 1.69 1.972 3.663 3.38 6.199 4.789 2.536 1.126 5.354 1.69 8.453 1.69 3.1 0 4.509-.564 6.763-1.409 2.254-.845 4.226-1.971 5.917-3.38 1.691-1.408 3.1-2.817 4.227-3.944l6.199 4.507c-1.691 2.254-3.382 3.944-5.917 5.634-2.536 1.69-5.072 3.099-7.89 3.944-2.818.845-5.918 1.408-9.299 1.408l-.563-.563Zm-8.736-26.197c2.255 0 4.791 0 7.327-.564 2.536 0 4.79-.563 6.762-1.408 2.255-.563 3.945-1.69 5.072-2.535 1.127-1.127 1.973-2.535 1.973-4.226 0-1.69-.564-3.098-1.691-4.507-1.127-1.408-2.536-2.253-4.227-3.098-1.69-.845-3.944-1.127-6.199-1.127-3.381 0-6.481.845-9.298 2.254-2.818 1.408-4.79 3.662-6.481 6.197-1.691 2.535-2.536 5.352-2.536 8.169 1.127 0 2.254.281 3.945.563 1.69.282 3.381 0 5.353 0v.282Zm41.702 25.633v-49.296h8.172v10.423c.845-1.972 1.972-3.944 3.663-5.634 1.69-1.69 3.663-3.099 5.917-3.944 2.254-.845 4.79-1.69 7.326-1.69 3.945 0 7.327.845 10.144 2.535 2.818 1.691 5.072 4.226 6.481 7.324 1.691 3.099 2.254 6.761 2.254 10.986v29.014h-8.171v-27.042c0-5.07-1.127-8.732-3.663-11.549-2.536-2.817-5.918-4.225-9.862-4.225-3.945 0-5.072.563-7.045 2.253-1.972 1.69-3.663 3.38-5.072 6.197-1.127 2.535-1.972 5.634-1.972 9.014v25.634h-8.172Zm73.543.564c-3.382 0-6.2-1.127-8.736-3.381-2.254-2.253-3.381-5.352-3.381-9.014v-30.704h-8.453v-6.761h27.896v6.761h-11.271v30.986c0 1.69.563 2.817 1.409 3.662.845.845 1.972 1.127 3.099 1.127 1.127 0 1.691 0 2.254-.564.846-.282 1.409-.845 2.255-1.408l4.226 5.634c-1.409 1.126-2.818 1.971-4.226 2.535-1.409.563-3.382.845-5.072.845v.282Zm-16.062-46.479v-3.381c1.127 0 2.254-.281 2.818-1.126.564-.564 1.127-1.691 1.127-2.817v-8.169h8.453v6.76c0 .845 0 1.69-.563 2.254-.564.563-.845 1.408-1.409 1.972-.564.563-1.409.845-2.254 1.126l-8.172 3.381Zm39.449-11.268c-1.69 0-3.381-.563-4.508-1.69-1.127-1.127-1.973-2.535-1.973-4.225 0-1.69.564-3.099 1.691-4.226 1.127-1.126 2.818-1.69 4.509-1.69 1.69 0 3.381.564 4.508 1.69 1.127 1.127 1.972 2.536 1.972 4.226s-.563 3.098-1.972 4.225c-1.409 1.127-2.818 1.69-4.508 1.69h.281Zm-3.945 57.183v-49.295h8.172v49.295h-8.172Zm22.543 0v-49.296h8.171v10.423c.845-1.972 1.972-3.944 3.663-5.634 1.691-1.69 3.663-3.099 5.917-3.944 2.255-.845 4.791-1.69 7.327-1.69 3.945 0 7.326.845 10.144 2.535 2.817 1.691 5.072 4.226 6.481 7.324 1.69 3.099 2.254 6.761 2.254 10.986v29.014h-8.172v-27.042c0-5.07-1.127-8.732-3.663-11.549-2.536-2.817-5.917-4.225-9.862-4.225-3.945 0-5.072.563-7.045 2.253-2.254 1.408-3.663 3.38-5.072 6.197-1.127 2.535-1.972 5.634-1.972 9.014v25.634h-8.171Zm79.179.564c-4.509 0-8.735-1.127-12.68-3.099-3.945-1.971-6.763-5.07-8.735-8.732-2.255-3.944-3.382-8.169-3.382-13.239 0-5.071 1.127-9.86 3.382-13.522 2.254-3.661 5.072-6.76 9.017-8.732 3.663-1.972 7.889-3.099 12.679-3.099 4.791 0 9.017 1.127 12.68 3.099 3.664 1.972 6.763 5.071 9.017 8.732 2.255 3.662 3.382 8.169 3.382 13.522 0 5.352-1.127 9.577-3.382 13.239-2.254 3.944-5.353 6.761-9.017 8.732-3.944 1.972-8.171 3.099-12.68 3.099h-.281Zm0-7.042c2.817 0 5.635-.564 8.171-1.972 2.536-1.409 4.509-3.38 6.199-5.916 1.691-2.816 2.255-5.915 2.255-10.14 0-4.226-.846-7.606-2.255-10.141-1.69-2.817-3.663-4.507-6.199-5.916-2.536-1.408-5.072-1.972-8.171-1.972-3.1 0-5.636.564-8.172 1.972-2.536 1.409-4.508 3.381-6.199 5.916-1.691 2.817-2.254 6.197-2.254 10.141 0 3.943.845 7.605 2.254 10.14 1.691 2.817 3.381 4.507 5.917 5.916 2.536 1.408 5.072 1.972 8.172 1.972h.282ZM223.728 80.563c-1.69-9.859-4.79-19.155-9.298-27.605-7.608-13.521-18.316-24.789-34.941-36.62C156.947 3.38 136.659.845 120.598 0c7.044 1.408 17.752 4.225 23.105 7.042 5.636 1.972 12.68 6.76 20.288 13.24 11.553 9.859 17.189 20 20.57 29.296 5.636 16.056 6.763 42.535-21.415 38.028-9.862-1.69-24.796-6.48-46.493-3.944-27.05 3.944-46.775 18.873-48.748 42.535-2.535 28.451 20.007 49.859 51.002 54.648 18.597 2.817 42.548 4.225 68.472-10.986 5.072-3.098 18.034-11.549 27.332-27.887 6.763-13.24 10.426-27.887 10.708-43.38 0-6.198-.564-12.395-1.409-18.874l-.282.845Z"/>
    <path fill="#000" d="M145.396 25.915c-16.625-9.859-27.896-13.521-50.72-13.803-24.515 0-54.665 10.423-73.544 32.113C7.89 59.155.844 79.155.562 99.436c.846 57.183 48.466 98.873 109.894 100.282 6.762 0 17.751-.563 23.669-1.69-4.79-.564-19.443-2.817-26.205-3.944-7.608-1.408-25.079-7.887-37.477-20.845-9.58-9.859-18.879-26.76-16.906-47.606 2.817-30.422 25.923-50.422 63.118-55.774 16.061-2.254 32.968.563 43.112 3.38 7.607 1.972 9.58 2.535 12.116.563 1.127-1.126 2.254-2.253 2.254-5.633 0-9.014-6.199-28.733-28.741-41.972v-.282Z"/>
  </g>
  <defs>
    <clipPath id="a">
      <path fill="#fff" d="M0 0h685v200H0z"/>
    </clipPath>
  </defs>
</svg>
