<svg xmlns="http://www.w3.org/2000/svg" width="497" height="200" fill="none" viewBox="0 0 497 200">
  <path fill="#000" d="M36.246 85.948c-5.224 0-10.123-.98-14.694-2.614-4.572-1.961-8.164-4.249-11.43-7.517-3.265-3.268-5.877-7.19-7.51-11.765C.98 59.477 0 54.575 0 49.346c0-5.228.98-10.457 2.612-14.705 1.96-4.576 4.245-8.497 7.51-11.765 3.266-3.268 7.185-5.883 11.43-7.517 4.572-1.633 9.143-2.614 14.368-2.614 5.224 0 10.45.98 14.694 2.941 4.572 1.961 8.164 4.576 11.43 8.17 3.265 3.595 5.55 7.843 6.857 12.419l-16.654 5.228c-1.633-4.575-3.592-7.843-6.53-9.804-2.94-1.96-6.205-2.94-10.124-2.94-3.918 0-6.857.98-9.796 2.614-2.612 1.634-4.898 4.248-6.53 7.19-1.634 3.267-2.287 6.862-2.287 11.11 0 4.249.653 7.843 2.286 11.111 1.633 3.268 3.592 5.556 6.53 7.517 2.613 1.634 5.879 2.614 9.797 2.614 3.919 0 7.51-.98 10.45-3.268 2.938-2.287 5.224-5.555 6.53-9.804l16.98 3.922c-1.305 5.229-3.591 9.477-6.857 13.398-3.265 3.595-7.184 6.537-11.755 8.497-4.572 1.961-9.797 2.941-15.021 2.941l.326-.653Zm44.082-.654V27.778h17.307v57.516H80.328Zm14.695-24.837 2.612-18.954c1.306-4.575 3.265-7.843 6.531-10.457 2.939-2.615 7.184-3.922 11.755-3.922v18.3h-3.918c-2.612 0-4.898.654-6.858 1.962-2.285 1.307-3.918 2.94-5.224 5.228s-1.96 5.229-1.96 8.497H95.35l-.326-.654Zm57.472 25.491c-4.245 0-8.164-.654-12.082-1.96-3.919-1.308-7.184-3.269-10.123-5.556-2.939-2.615-5.225-5.556-6.857-9.15-1.633-3.596-2.613-7.844-2.613-12.42 0-4.574.653-8.496 2.286-12.09 1.633-3.596 3.919-6.863 6.531-9.478 2.939-2.614 6.204-4.575 9.796-6.209 3.592-1.307 7.511-2.288 11.756-2.288s6.531.327 9.47 1.308c2.939.98 5.877 2.287 8.163 3.921 2.286 1.634 4.245 3.595 5.551 6.21 1.307 2.287 1.96 4.901 1.96 7.843 0 2.94-.98 6.535-2.939 9.15-1.959 2.287-4.572 4.248-8.164 5.882-3.265 1.307-6.857 2.288-10.776 2.941-3.918.654-7.837.654-11.755.654h-4.572c.327 1.634 1.306 2.941 2.612 4.248 1.307 1.308 2.939 2.288 5.225 2.942 1.959.653 4.245.98 6.204.98 1.96 0 4.246-.327 6.205-.98 1.959-.654 3.918-1.635 5.551-2.942 1.633-1.307 2.939-2.614 4.245-3.921l11.103 8.823c-1.96 2.942-4.572 5.23-7.511 6.863-2.939 1.634-6.204 3.268-9.47 3.922-3.265.98-6.857 1.307-10.449 1.307h.653ZM162.291 0v13.726l-24.817 10.457V12.092L162.291.326V0Zm-18.613 53.268h5.878c1.959 0 3.919-.654 5.551-.98 1.633-.654 2.939-1.307 4.245-2.288.98-.98 1.633-1.96 1.633-3.595 0-1.634-.326-2.287-1.306-2.94-.98-.981-1.959-1.635-3.265-1.962-1.307-.327-2.939-.653-4.246-.653-2.612 0-5.224.653-7.183 1.96-1.96 1.308-3.592 2.942-4.572 4.902-.98 1.961-1.633 3.922-1.959 5.883h5.877l-.653-.327Zm65.637 32.68c-5.225 0-9.47-1.307-13.062-3.922-3.592-2.614-6.531-6.209-8.49-10.457-1.959-4.575-2.939-9.477-2.939-15.033 0-5.556.98-10.457 2.939-15.033 1.959-4.575 4.898-7.843 8.49-10.457 3.592-2.614 8.164-3.922 13.062-3.922s8.164 1.308 11.429 3.595c3.265 2.288 5.551 5.556 6.857 9.804V9.15h17.307v76.144h-8.816c-2.613 0-4.899-.653-6.205-2.287s-2.286-3.595-2.286-6.536v-3.922c-1.306 4.249-3.918 7.516-6.857 9.804a19.783 19.783 0 0 1-11.429 3.595Zm5.878-15.36c2.286 0 4.245-.653 6.204-1.634 1.959-.98 3.592-2.614 4.572-4.902 1.306-1.96 1.632-4.575 1.632-7.516s-.653-5.556-1.632-7.516c-1.306-2.288-2.613-3.922-4.572-4.902s-3.918-1.634-6.204-1.634c-2.286 0-4.245.653-6.205 1.634-1.959.98-3.592 2.614-4.571 4.902-.98 2.287-1.633 4.575-1.633 7.516s.653 5.556 1.633 7.516c.979 1.961 2.612 3.595 4.571 4.902 1.96 1.308 3.919 1.634 6.205 1.634ZM266.46 21.57c-3.265 0-5.878-.981-8.163-2.942-2.286-1.96-3.266-4.248-3.266-7.19 0-2.94.98-5.555 3.266-7.19 2.285-1.96 4.898-2.94 8.163-2.94 3.266 0 5.878.98 8.164 2.94 1.959 1.962 3.265 4.25 3.265 7.19 0 2.941-.979 5.23-3.265 7.19s-4.898 2.941-8.164 2.941Zm-8.816 63.725V27.778h17.306v57.517h-17.306Zm54.207.653c-6.205 0-11.103-1.634-14.368-5.228-3.266-3.595-4.898-8.497-4.898-15.033v-23.53h-9.144V28.105h37.879v14.052h-11.429v23.857c0 1.634.654 2.94 1.633 3.921.98.98 2.286 1.307 3.919 1.307h1.959c.653 0 1.306-.326 1.633-.653l4.245 12.745c-1.633.98-3.266 1.634-5.225 2.287-1.959.654-3.918.98-5.878.98l-.326-.653Zm-24.165-53.595v-4.575c1.633 0 2.613-.327 3.592-1.307.98-.98 1.307-2.288 1.307-3.595v-8.823h16.98v6.209c0 .98 0 1.96-.653 3.268-.653 1.307-1.306 2.287-2.286 2.941-.98.98-2.286 1.307-3.592 1.634L287.36 32.68l.326-.327Zm70.207 53.595c-5.551 0-10.45-1.307-15.021-3.595-4.572-2.288-7.837-5.882-10.45-10.13-2.612-4.25-3.918-9.478-3.918-15.687 0-6.21 1.306-11.438 3.918-15.687 2.613-4.248 6.205-7.843 10.776-10.13 4.572-2.288 9.47-3.595 15.021-3.595 5.552 0 10.776 1.307 15.348 3.595 4.572 2.287 8.164 5.882 10.776 10.13 2.612 4.249 3.918 9.478 3.918 15.687s-1.306 11.111-3.918 15.686c-2.612 4.249-6.204 7.843-10.776 10.13-4.572 2.288-9.796 3.596-15.348 3.596h-.326Zm0-15.033c1.959 0 4.245-.654 5.878-1.634 1.959-.98 3.265-2.614 4.571-4.902 1.306-2.288 1.633-4.902 1.633-8.17s-.653-5.882-1.633-7.843c-1.306-1.96-2.612-3.595-4.571-4.575-1.96-.98-3.919-1.634-5.878-1.634s-4.245.653-5.878 1.634c-1.959.98-3.265 2.614-4.572 4.575-.979 1.96-1.632 4.902-1.632 7.843s.653 5.882 1.632 8.17c.98 2.288 2.613 3.595 4.246 4.902 1.959.98 3.918 1.634 5.877 1.634h.327ZM36.901 101.308l25.797 71.242H52.575l-23.511-66.014h4.572L10.124 172.55H.328l25.797-71.242h10.776ZM12.737 149.02H49.31l2.612 7.843H10.451l2.286-7.843Zm61.388 23.529V116.34h9.47v56.209h-9.47Zm5.878-28.758 3.265-15.033c1.306-4.248 3.592-7.189 6.858-9.804a19.789 19.789 0 0 1 11.429-3.595v9.804h-3.266c-2.939 0-5.551.654-7.837 2.288-2.286 1.634-3.918 3.595-5.551 6.536-1.306 2.614-1.96 6.209-1.96 9.804h-3.265.327ZM138.782 200c-4.572 0-8.817-.653-12.735-2.287-3.592-1.634-6.858-3.595-9.47-6.536-2.612-2.941-4.898-5.883-6.204-9.804l8.49-3.595c1.959 4.248 4.571 7.516 8.163 10.131 3.592 2.614 7.511 3.921 12.082 3.921 4.572 0 6.531-.653 9.144-2.287 2.612-1.307 4.898-3.595 6.204-6.209 1.633-2.615 2.286-5.883 2.286-9.804v-13.726c-1.633 3.922-4.245 7.19-8.164 9.804-3.918 2.288-8.163 3.595-13.062 3.595-4.898 0-9.469-1.307-13.388-3.595-3.918-2.287-7.184-5.882-9.47-10.131-2.285-4.248-3.592-9.477-3.592-15.032 0-5.556 1.307-10.785 3.592-15.033 2.286-4.248 5.552-7.516 9.47-10.131 3.919-2.287 8.49-3.594 13.388-3.594 4.899 0 9.47 1.307 13.062 3.594 3.919 2.288 6.531 5.556 8.164 9.477V116.34h9.47v57.19c0 3.921-.654 7.516-1.96 10.457-1.306 3.268-2.939 5.883-5.551 8.497-2.286 2.288-5.225 4.248-8.49 5.556-3.266 1.307-7.184 1.96-11.429 1.96Zm-1.306-34.967c3.265 0 6.531-.98 9.469-2.614 2.939-1.634 5.225-3.922 6.858-7.19 1.633-3.268 2.612-6.863 2.612-11.111s-.979-8.17-2.612-11.111c-1.633-2.941-3.919-5.556-6.858-7.19-2.938-1.634-5.877-2.614-9.469-2.614-3.592 0-6.531.98-9.47 2.614-2.939 1.634-5.225 3.922-6.857 7.19-1.633 2.941-2.613 6.863-2.613 11.111s.98 8.17 2.613 11.111c1.632 3.268 3.918 5.556 6.857 7.19 2.939 1.634 6.204 2.614 9.47 2.614Zm70.859 8.17c-4.245 0-8.49-.654-12.082-1.961-3.592-1.307-6.858-3.268-9.47-5.883-2.612-2.614-4.572-5.555-6.204-9.15-1.306-3.595-2.286-7.189-2.286-11.765 0-4.575.653-8.17 2.286-11.764 1.632-3.595 3.918-6.536 6.531-9.151 2.612-2.614 5.877-4.575 9.469-6.209a31.78 31.78 0 0 1 11.103-1.961c3.918 0 6.531.327 9.47 1.308 2.939.98 5.224 2.287 7.51 3.921 1.959 1.634 3.592 3.595 4.898 5.556 1.306 2.287 1.633 4.575 1.633 6.862 0 2.288-.98 6.536-2.939 8.824-1.959 2.288-4.571 4.248-7.837 5.556-3.265 1.307-6.857 2.287-10.776 2.614-3.918.654-7.837.654-11.755.654h-9.797c.327 2.614 1.633 5.228 3.266 7.516 1.632 2.287 4.245 3.921 7.184 5.555 2.939 1.308 6.204 1.961 9.796 1.961 3.592 0 5.225-.653 7.837-1.634 2.612-.98 4.572-2.287 6.531-3.595 1.959-1.634 3.592-2.941 4.898-4.575l6.857 5.229c-1.632 2.288-3.918 4.575-6.53 6.536-2.613 1.961-5.552 3.268-8.817 4.575-3.266 1.307-6.858 1.634-10.776 1.634v-.653Zm-10.123-29.739c2.612 0 5.551 0 8.164-.327 2.939 0 5.551-.98 7.837-1.634 2.286-.653 4.245-1.634 5.878-2.941 1.632-1.307 2.285-2.941 2.285-4.902 0-1.961-.653-3.595-1.959-5.229s-2.939-2.614-4.898-3.594c-1.959-.981-4.572-1.308-7.184-1.308-3.919 0-7.511.981-10.449 2.615-3.266 1.96-5.552 4.248-7.511 7.189-1.959 2.941-2.939 6.209-2.939 9.477 1.306 0 2.613.327 4.572.327h6.204v.327Zm47.677 29.085V116.34h9.47v12.092c.979-2.288 2.286-4.576 4.245-6.536 1.959-1.961 3.918-3.595 6.531-4.575 2.612-1.308 5.551-1.634 8.49-1.634 4.571 0 8.163.98 11.429 2.941 3.265 1.96 5.878 4.575 7.51 8.17 1.633 3.594 2.613 7.843 2.613 12.745v33.333h-9.143v-30.719c0-5.555-1.307-10.131-4.246-13.399-2.938-3.268-6.53-4.902-11.429-4.902-4.898 0-5.877.981-8.163 2.615-2.286 1.634-4.245 3.921-5.878 6.863-1.633 2.941-2.286 6.536-2.286 10.13v29.085h-9.47.327Zm83.921.654c-3.919 0-7.184-1.307-9.797-3.921-2.612-2.615-3.918-6.21-3.918-10.458v-34.967h-9.47v-7.843h32.001v7.843h-13.061v35.294c0 1.634.653 3.268 1.632 4.248.98.981 2.286 1.307 3.592 1.307s1.959 0 2.613-.653c.979-.327 1.632-.981 2.285-1.634l4.572 6.536c-1.633 1.307-3.265 2.287-4.898 2.941-1.633.654-3.592.98-5.878.98l.327.327Zm-18.287-52.941v-3.922c1.306 0 2.613-.326 3.266-1.307.653-.98 1.306-1.961 1.306-3.268v-9.477h9.47v7.843c0 .981 0 1.961-.654 2.615-.326.98-.979 1.634-1.632 2.287-.653.654-1.633.981-2.613 1.307l-9.143 3.922Zm45.39-13.073c-1.959 0-3.592-.653-5.225-1.96-1.633-1.308-2.286-2.942-2.286-4.902 0-1.961.653-3.595 1.96-4.902 1.306-1.307 3.265-1.961 5.224-1.961 1.96 0 3.592.654 5.225 1.96 1.306 1.308 2.286 2.942 2.286 4.903 0 1.96-.653 3.594-2.286 4.902-1.633 1.307-3.265 1.96-5.225 1.96h.327Zm-4.898 65.36V116.34h9.469v56.209h-9.469Zm25.796 0V116.34h9.47v12.092c.979-2.288 2.285-4.576 4.245-6.536 1.959-1.961 3.918-3.595 6.531-4.575 2.612-1.308 5.551-1.634 8.49-1.634 4.571 0 8.163.98 11.429 2.941 3.265 1.96 5.878 4.575 7.51 8.17 1.633 3.594 2.613 7.843 2.613 12.745v33.333h-9.144v-30.719c0-5.555-1.306-10.131-4.245-13.399-2.939-3.268-6.53-4.902-11.429-4.902-4.898 0-5.877.981-8.163 2.615-2.286 1.634-4.245 3.921-5.878 6.863-1.633 2.941-2.286 6.536-2.286 10.13v29.085h-9.47.327Zm90.451.654c-5.224 0-10.122-1.307-14.367-3.595-4.246-2.287-7.511-5.882-10.123-10.13-2.613-4.249-3.592-9.477-3.592-15.36 0-5.882 1.306-11.111 3.918-15.359 2.613-4.249 5.878-7.517 10.123-10.131 4.245-2.288 9.143-3.595 14.368-3.595s10.123 1.307 14.368 3.595c4.245 2.288 7.837 5.556 10.123 10.131 2.612 4.248 3.918 9.477 3.918 15.359 0 5.883-1.306 10.785-3.918 15.36-2.613 4.248-5.878 7.843-10.45 10.13-4.245 2.288-9.143 3.595-14.694 3.595h.326Zm0-8.17c3.266 0 6.205-.653 9.144-2.287s5.224-3.922 7.184-6.863c1.959-2.941 2.612-6.863 2.612-11.438s-.98-8.497-2.612-11.765c-1.96-2.941-4.245-5.228-7.184-6.862-2.939-1.634-5.878-2.288-9.144-2.288-3.265 0-6.204.654-9.143 2.288-2.939 1.634-5.224 3.921-6.857 6.862-1.633 2.941-2.613 6.863-2.613 11.765s.98 8.497 2.613 11.438c1.633 2.941 3.918 5.229 6.857 6.863 2.939 1.634 5.878 2.287 9.143 2.287Z"/>
</svg>
