<svg xmlns="http://www.w3.org/2000/svg" width="416" height="200" fill="none" viewBox="0 0 416 200">
  <g clip-path="url(#a)">
    <path fill="#000" d="M415.818 200H0V0h311.11v18.213H17.948v163.235H397.87V106.24h17.948V200Z"/>
    <path fill="#000" d="M82.307 56.406h18.281v65.771h43.328v16.276h-61.62V56.406h.011Zm82.135.063h39.066a29.973 29.973 0 0 1 21.867 7.541 17.663 17.663 0 0 1 5.961 13.766 17.774 17.774 0 0 1-.998 6.234 16.96 16.96 0 0 1-2.323 4.922 18.881 18.881 0 0 1-7.942 6.552 30.789 30.789 0 0 1 11.918 7.552 19.183 19.183 0 0 1 4.309 12.787 21.542 21.542 0 0 1-2.323 9.838 23.046 23.046 0 0 1-6.617 7.204 27.679 27.679 0 0 1-9.938 4.27 54.33 54.33 0 0 1-12.906 1.313h-40.074v-81.98Zm35.427 33.114a16.683 16.683 0 0 0 9.611-1.963 6.874 6.874 0 0 0 3.638-6.563 8.487 8.487 0 0 0-2.983-6.88 18.356 18.356 0 0 0-9.268-2.302h-18.54v17.708h17.542Zm4.637 33.125a15.024 15.024 0 0 0 9.267-1.968 6.549 6.549 0 0 0 3.322-6.558 7.515 7.515 0 0 0-2.984-6.89 15.672 15.672 0 0 0-9.933-2.292h-21.856v17.708h22.184Zm85.232 20.87a45.123 45.123 0 0 1-17.646-3.682 43.184 43.184 0 0 1-13.722-9.052 46.686 46.686 0 0 1-8.816-13.745A42.91 42.91 0 0 1 246.607 100a46.237 46.237 0 0 1 2.947-16.76 42.694 42.694 0 0 1 22.87-23.474 43.634 43.634 0 0 1 17.647-3.35 44.74 44.74 0 0 1 17.646 3.35 43.992 43.992 0 0 1 13.722 9.39 40.321 40.321 0 0 1 9.138 13.745 41.406 41.406 0 0 1 3.264 16.76 49.712 49.712 0 0 1-3.264 17.099 43.685 43.685 0 0 1-9.148 13.75 37.434 37.434 0 0 1-14.05 9.386 42.487 42.487 0 0 1-17.646 3.687l.005-.005Zm.333-17.094a23.358 23.358 0 0 0 9.797-2.343c3.093-1.105 5.801-3.084 7.849-5.704a24.23 24.23 0 0 0 5.224-8.375 24.907 24.907 0 0 0 1.954-10.072 25.085 25.085 0 0 0-1.954-10.052 29.393 29.393 0 0 0-5.224-9.053 26.482 26.482 0 0 0-7.849-5.692 26.45 26.45 0 0 0-20.255 0 26.37 26.37 0 0 0-7.838 5.692 33.885 33.885 0 0 0-4.574 8.386 26.965 26.965 0 0 0-1.638 10.062 27.633 27.633 0 0 0 1.638 10.391 26.768 26.768 0 0 0 4.891 8.385 26.516 26.516 0 0 0 7.848 5.693 23.646 23.646 0 0 0 10.131 2.693v-.011ZM338.987 0h77.014v76.917"/>
  </g>
  <defs>
    <clipPath id="a">
      <path fill="#fff" d="M0 0h416v200H0z"/>
    </clipPath>
  </defs>
</svg>
