<svg xmlns="http://www.w3.org/2000/svg" width="1133" height="200" fill="none" viewBox="0 0 1133 200">
  <path fill="#000" d="M248.895 57.55c23.83 21.38 40.592 48.53 44.745 80.705.086 2.851.115 5.704.083 8.557l-.036 4.31-.047 3.24c-5.523 2.764-12.703 1.59-18.772 1.594l-4.546.05-4.337.008-3.991.016c-3.216-.326-3.216-.326-5.898-3.01-.683-3.279-1.25-6.51-1.759-9.816-4.132-23.898-15.153-45.93-35.364-60.243-21.97-14.289-45.847-19.672-71.73-15.606-23.578 5.073-44.492 17.373-57.907 37.752-8.2 13.582-13.483 26.838-15.006 42.711-.586 5.202-.586 5.202-3.268 7.886-3.339.348-3.339.348-7.5.357l-4.52.01-4.74-.031-4.74.031-4.52-.01-4.162-.009c-3.339-.348-3.339-.348-6.02-3.032-1.365-31.838 14.4-62.71 35.076-85.906 46.517-50.23 127.242-53.09 178.959-9.564Zm83.63-14.597h36.202c2.57 6.001 4.568 10.74 6.08 16.87l1.056 4.232 1.093 4.48 1.155 4.654c1.209 4.88 2.408 9.764 3.606 14.647.82 3.32 1.642 6.64 2.464 9.96 2.008 8.115 4.007 16.232 6 24.352l.754-2.947c2.343-9.146 4.691-18.292 7.043-27.436 1.21-4.701 2.417-9.403 3.621-14.106 1.161-4.536 2.326-9.07 3.495-13.603.663-2.579 1.322-5.159 1.981-7.739l1.22-4.723 1.073-4.182c.925-3.117.925-3.117 2.266-4.459 2.567-.134 5.139-.175 7.71-.178l4.734-.005 4.987.015 4.986-.015 4.735.005 4.378.004c3.331.174 3.331.174 4.672 1.516.326 2.93.564 5.87.768 8.811l.199 2.792c.216 3.066.424 6.131.631 9.197l.445 6.399c.311 4.485.619 8.97.923 13.456.388 5.719.785 11.436 1.186 17.154.308 4.414.612 8.828.914 13.242.145 2.106.291 4.212.438 6.317.76 10.914 1.383 21.751 1.2 32.699h-24.134c-2.939-56.461-2.939-56.461-4.023-83.221-6.373 21.516-12.447 43.107-18.383 64.748l-1.677 6.089-.778 2.851c-1.805 6.546-1.805 6.546-3.297 9.533h-26.816c-4.526-12.08-4.526-12.08-6.203-18.487l-1.138-4.314-1.181-4.548-1.245-4.738c-1.303-4.963-2.598-9.928-3.893-14.892l-2.658-10.136c-2.165-8.253-4.323-16.508-6.477-24.764-1.607 3.218-1.644 5.51-1.841 9.103l-.23 4.048-.233 4.393-.255 4.516c-.27 4.783-.532 9.566-.793 14.35-.261 4.754-.524 9.509-.792 14.263-.166 2.961-.329 5.922-.488 8.883-.419 7.498-1.034 14.886-2.072 22.323h-20.112c-1.625-4.879-1.249-8.336-.899-13.474l.191-2.898c.211-3.165.433-6.329.656-9.493l.447-6.605c.313-4.619.631-9.238.954-13.856.412-5.907.814-11.815 1.212-17.724.308-4.55.619-9.1.932-13.649.15-2.177.298-4.355.446-6.532.208-3.053.421-6.104.635-9.156l.364-5.256c.386-4.279 1.061-8.529 1.766-12.766Z"/>
  <path fill="#000" d="M211.849 85.906c4.864 3.691 9.153 7.709 13.408 12.08l2.876 2.748c11.089 11.292 19.135 28.283 20.18 44.191l-.094 3.397-.073 3.482-.095 2.559c-3.469 1.736-6.008 1.516-9.888 1.52l-4.337.005-4.546-.015-4.546.015-4.337-.005-3.991-.004c-3.216-.174-3.216-.174-5.898-1.516-.648-2.439-1.189-4.907-1.676-7.383-2.905-12.242-9.242-21.842-19.777-28.859-12.399-6.666-24.658-8.552-38.402-5.112-11.444 3.926-19.819 10.817-25.958 21.219-1.708 3.956-2.923 7.92-4.022 12.081-2.541 7.912-2.541 7.912-4.023 9.396-5.55.339-11.117.248-16.676.252l-4.759.049-4.538.008-4.187.017c-3.36-.326-3.36-.326-6.042-3.011-1.044-19.439 8.697-39.07 21.118-53.355 29.517-31.007 74.09-35.936 110.283-13.759Zm738.076-19.09c8.245.723 16.588.39 24.857.298v12.08h-14.749l1.975 3.456c3.771 8.468 3.348 18.178 1.121 27.108-2.682 6.775-5.771 10.503-12.481 13.732-9.684 3.462-19.311 2.943-29.499 2.685l-1.341 14.765 5.348.199c35.916 1.468 35.916 1.468 44.263 9.197 5.281 8.282 4.901 17.262 4.023 26.845-2.277 7.374-7.043 11.977-13.409 16.108-8.298 4.307-17.085 4.384-26.23 4.446l-3.214.023c-10.764-.132-21.129-1.268-29.552-8.496-5.245-8.672-5.087-16.971-4.023-26.846 1.965-5.516 5.856-8.945 10.727-12.08l-1.425-4.027c-2.399-8.431-.248-16.115 2.766-24.161l-3.101-2.181c-6.48-5.733-7.871-11.224-8.799-19.631-.484-9.45-.03-17.781 6.186-25.304 12.796-12.089 30.139-10.47 46.557-8.216Zm-35.48 15.063c-3.191 4.41-3.082 8.675-3.101 14.01l-.068 4.525c.544 4.782 1.552 7.227 4.51 10.996 6.888 4.258 14.648 4.594 22.48 3.45 4.382-1.12 6.748-2.718 9.7-6.135 3.581-7.682 3.667-14.49 1.005-22.483-2.394-4.451-3.404-5.973-7.709-8.39-4.777-.639-4.777-.639-9.973-.503l-5.274-.031c-5.096.56-7.6 1.374-11.57 4.561Zm-1.005 76.427c-3.297 4.798-3.976 8.988-3.536 14.739.75 4.039 1.768 6.452 4.541 9.506 6.712 2.913 12.848 3.133 20.029 3.104l3.14.065c7.123.006 12.099-1.122 18.397-4.512 4.408-5.791 4.296-10.47 3.509-17.381-.984-3.273-2.236-4.625-4.85-6.78-5.929-2.967-13.59-2.294-20.112-2.684l-4.447-.415c-9.244-.571-9.244-.571-16.671 4.358ZM536.333 77.853c5.473 6.744 6.869 12.524 6.878 21.05l.012 3.65-.008 3.886.004 4.024c.001 2.798-.001 5.596-.007 8.394-.007 4.301 0 8.601.009 12.902-.001 2.718-.003 5.436-.006 8.153l.008 3.919-.012 3.599-.004 3.181c-.17 2.409-.17 2.409-1.511 3.752-9.209 1.633-18.371 1.639-27.689 1.665-2.877.013-5.754.054-8.631.097-11.935.091-22.906-.448-33.319-6.88-6.636-7.046-8.348-14.946-8.129-24.412 1.228-6.861 3.924-11.857 9.664-16.071 13.461-7.721 28.97-6.957 43.969-6.748l-1.005-5.202-.566-2.925c-1.489-3.502-2.999-3.891-6.474-5.296-2.754-.386-2.754-.386-5.625-.31l-3.227.006-3.383.052-3.451.024c-7.804.09-15.442.694-23.198 1.57-1.34-1.342-1.34-1.342-1.471-4.997l.047-4.483.036-4.493.048-3.476c19.933-6.369 49.988-8.983 67.041 5.369Zm-43.561 44.017c-2.927 4.278-2.67 7.299-2.027 12.359 2.546 3.822 5.021 4.489 9.386 5.369a95.58 95.58 0 0 0 6.033.167l3.059.011c3.413-.113 3.413-.113 8.338-1.521v-18.792a590.323 590.323 0 0 0-10.391-.335l-2.964-.136c-4.756-.087-7.523.057-11.434 2.878Zm275.521-42.675c9.299 10.228 12.906 22.967 12.445 36.603-1.372 13.333-6.81 22.185-16.132 31.518-12.73 8.822-25.451 10.082-40.56 8.389-10.29-2.087-18.709-6.654-25.476-14.765-8.094-12.933-9.913-26.268-7.427-41.328 2.903-11.043 8.292-18.762 17.902-24.947 18.697-10.281 42.461-8.817 59.248 4.53Zm-46.929 12.08c-6.195 8.417-6.09 18.105-5.363 28.188 1.137 6.911 2.514 11.876 7.458 16.947 7.778 3.114 14.704 2.931 22.627.335 5.362-3.928 6.945-7.643 8.086-14.157 1.084-9.513 2.027-21.312-3.551-29.65-4.762-4.923-8.288-5.917-14.927-6.025-5.893.07-9.8.253-14.33 4.362Z"/>
  <path fill="#000" d="M183.309 121.629c8.274 5.026 14.812 12.078 18.311 21.172 2.755 11.459 2.204 22.552-3.792 32.792-6.107 8.652-13.048 15.086-23.522 17.696-14.084 1.585-24.584-.379-35.867-8.893-7.898-7.208-11.904-17.631-12.822-28.104.17-10.094 4.196-20.709 11.224-28.009 13.764-11.145 30.17-14.215 46.468-6.654Zm646.665-88.072h30.839l2.232 8.118 7.385 26.857 5.344 19.433 2.592 9.427c1.124 4.085 2.246 8.17 3.368 12.255 2.265 8.247 4.534 16.492 6.873 24.718l.977 3.452a921.06 921.06 0 0 0 1.695 5.891c1.211 4.263 1.714 7.493 1.714 11.996h-13.409a2220.86 2220.86 0 0 1-3.268-10.151l-.935-2.865-.903-2.845-.83-2.577c-1.03-4.076-1.515-8.272-2.108-12.434h-52.293l-2.681 13.423a279.028 279.028 0 0 1-2.85 9.563l-1.435 4.541-1.079 3.345h-14.749c11.074-40.744 22.17-81.48 33.521-122.147Zm10.726 12.08c-2.487 8.934-4.969 17.87-7.447 26.806-.844 3.042-1.689 6.084-2.536 9.125a9955.537 9955.537 0 0 0-3.634 13.094l-1.156 4.14-1.057 3.826-.939 3.379c-.767 2.686-.767 2.686-.661 5.402h44.247c-4.899-22.177-11.196-43.942-17.431-65.772H840.7ZM624.826 71.14v17.45l-5.149-.141a7361.85 7361.85 0 0 0-6.835-.11l-3.375-.102c-9.317-.11-18.091 1.102-25.536 7.065-3.909 5.217-3.613 10.202-3.688 16.527l-.104 5.269c.492 5.649 1.089 8.535 4.462 13.103 8.404 5.801 17.009 6.063 26.9 5.705l3.905-.073a604.02 604.02 0 0 0 9.42-.263c1.661 3.326 1.565 5.687 1.592 9.396l.058 3.608c-.309 3.104-.309 3.104-2.991 5.788-13.878 4.214-34.306 3.231-47.578-2.16-12.044-6.665-18.65-15.553-22.48-28.544-2.673-12.34-1.574-24.748 4.996-35.676 7.958-10.985 16.778-15.939 29.918-18.855 12.5-1.948 24.199-.61 36.485 2.014Zm465.264-1.341c9.96 8.453 13.86 17.821 15.13 30.721.16 3.89.17 7.752.12 11.644.02 1.294.03 2.587.05 3.92-.06 13.904-3.09 25.419-12.62 35.846-12.05 7.288-25.59 7.737-38.96 4.949-7.34-2.01-12.73-4.374-17.35-10.57-5.8-11.11-6.95-21.566-6.96-33.893-.01-1.213-.03-2.426-.05-3.675-.03-14.468 2.4-26.074 12.71-36.677 13.65-8.387 33.58-10.136 47.93-2.265Zm-41.98 15.184c-7.56 13.237-5.84 33.021-2.89 47.342 2.09 6.741 5.28 9.37 11.35 12.642 3.8.521 6.95.756 10.73.671l2.78.063c6.83-.053 10.78-1.774 15.99-6.104 3.96-6.975 4.95-13.613 5.36-21.476.06-1.052.11-2.104.17-3.188.26-10.16.53-22.846-5.95-31.208-6.68-5.91-12.77-6.4-21.41-6.203-6.87.622-11.15 2.474-16.13 7.461ZM642.763 69.667c1.87.01 3.74.025 5.61.047l2.888.019c2.361.016 4.723.04 7.084.065l2.682 5.37 3.048-1.175c8.938-3.245 16.899-5.417 26.45-4.195 1.341 1.343 1.341 1.343 1.472 5.584l-.048 5.239-.036 5.248-.047 4.064c-3.851 1.927-7.446 1.76-11.733 2.013-6.021.36-11.825.98-17.766 2.014l.009 2.233c.03 7.642.05 15.284.065 22.926.007 2.856.016 5.711.028 8.566.016 4.095.023 8.19.029 12.284l.021 3.894.001 3.583.009 3.17c-.162 2.404-.162 2.404-1.502 3.746a75.704 75.704 0 0 1-5.411.131l-3.286-.013-3.455-.034-3.47-.018c-2.838-.016-5.675-.04-8.513-.066-.031-10.827-.055-21.655-.07-32.482-.007-5.028-.016-10.055-.031-15.082-.015-4.848-.023-9.695-.027-14.543-.002-1.853-.007-3.707-.014-5.56-.01-2.587-.01-5.175-.011-7.762l-.009-4.472c.25-5.14.73-4.64 6.033-4.794Zm385.657-3.895v13.422l-4.86 1.51c-8.83 3.083-17.39 6.885-25.983 10.57l-1.341 64.43h-13.408v-88.59h13.408l1.341 10.738 4.443-3.02c8.04-5.037 16.83-9.06 26.4-9.06Z"/>
</svg>
