<svg xmlns="http://www.w3.org/2000/svg" width="709" height="200" fill="none" viewBox="0 0 709 200">
  <path fill="#000" d="M215.755 160.555c-6.185 3.043-18.557 6.087-34.319 6.087-36.629 0-64.159-23.007-64.159-65.365.121-40.532 27.652-67.919 67.917-67.919 16.129 0 26.438 3.41 30.806 5.72l-4.003 13.634c-6.306-3.043-15.404-5.356-26.198-5.356-30.441 0-50.694 19.353-50.694 53.313 0 31.647 18.314 51.974 49.848 51.974 10.185 0 20.618-2.069 27.409-5.355l3.393 13.267Zm33.719-125.13h-16.739v129.268h16.739V35.426Zm122.245 123.548c-7.521 2.677-22.315 7.059-39.903 7.059-19.647 0-35.776-4.99-48.512-17.041-11.155-10.712-18.07-27.995-18.07-48.201.244-38.586 26.803-66.701 70.343-66.701 15.039 0 26.803 3.285 32.384 5.964l-4.003 13.632c-6.916-3.042-15.649-5.599-28.746-5.599-31.651 0-52.269 19.597-52.269 51.974 0 32.743 19.888 52.218 50.088 52.218 11.035 0 18.555-1.582 22.314-3.409v-38.585h-26.437V96.895h42.811v62.078ZM389.428 37.13c8.489-1.703 20.619-2.677 32.139-2.677 17.95 0 29.47 3.287 37.597 10.59 6.55 5.72 10.188 14.606 10.188 24.587 0 17.041-10.794 28.36-24.5 32.987v.608c10.068 3.408 16.009 12.659 19.04 26.048 4.245 18.015 7.278 30.552 10.069 35.542h-17.345c-2.061-3.651-4.973-14.728-8.611-30.916-3.879-17.893-10.794-24.587-25.953-25.075h-15.767v55.991H389.55V37.132l-.122-.002Zm16.857 58.913h17.102c17.947 0 29.226-9.736 29.226-24.586 0-16.676-12.126-23.98-29.836-24.223-8.121 0-13.822.73-16.613 1.582v47.227h.121Zm106.242 27.995-13.462 40.655H481.72l44.148-129.266h20.253l44.267 129.265h-17.95l-13.826-40.656h-46.085v.002Zm42.571-13.023-12.736-37.247c-2.912-8.399-4.853-16.066-6.791-23.613h-.365c-1.942 7.667-4.003 15.58-6.55 23.37l-12.732 37.368h39.174v.122Z"/>
</svg>
