<svg xmlns="http://www.w3.org/2000/svg" width="1012" height="200" fill="none" viewBox="0 0 1012 200">
  <g clip-path="url(#a)">
    <mask id="b" width="1012" height="200" x="0" y="0" maskUnits="userSpaceOnUse" style="mask-type:luminance">
      <path fill="#fff" d="M1012 0H0v200h1012V0Z"/>
    </mask>
    <g mask="url(#b)">
      <path fill="#000" stroke="#000" d="M92.092 0h2.024v1.015h-1.012V2.03h-1.012v1.016H91.08V4.06h-1.012v1.015h-1.012V6.09h-1.012v1.016h-1.012v1.015H86.02v1.015h-1.012v1.015h-1.012v1.016h-1.012v1.015h-1.012v1.015H80.96v1.015h-1.012v1.015h-1.012v1.016h-1.012v1.015h-1.012v1.015H75.9v1.015h-1.012v1.016h-1.012v1.015h-1.012v1.015h-1.012v1.015H70.84v1.015h-1.012v1.016h-1.012v1.015h-1.012v1.015h-1.012v1.015H65.78v1.016h-1.012v1.015h-1.012v1.015h-1.012v1.015h-1.012v1.015H60.72v1.016h-1.012v1.015h-1.012v1.015h-1.012v1.015h-1.012v1.016H55.66v1.015h-1.012v1.015h-1.012v1.015h-1.012v1.016h-1.012v1.015H50.6v1.015h-1.012v1.015h-1.012V46.7h-1.012v1.016h-1.012v1.015H45.54v1.015h-1.012v1.015h-1.012v1.016h-1.012v1.015h-1.012v1.015H40.48v1.015h-1.012v1.016h-1.012v1.015h-1.012v1.015h-1.012v1.015H35.42v1.015h-1.012v1.016h-1.012v1.015h-1.012v1.015h-1.012v1.015H30.36v1.016h-1.012v1.015h-1.012v1.015h-1.012v1.015h-1.012v1.016H25.3v1.015h-1.012v1.015h-1.012v1.015h-1.012v1.015h-1.012v1.016H20.24v1.015h-1.012v1.015h-1.012v1.015h-1.012v1.016h-1.012v1.015H15.18v1.015h-1.012v1.015h-1.012v1.016h-1.012v1.015h-1.012v1.015H10.12v1.015H9.108v1.015H8.096v1.016H6.072v2.03H5.06v1.015H4.048v1.016H3.036v1.015H2.024V93.4H0v-2.03h1.012v-5.077h1.012v-6.09h1.012v-4.061h1.012v-4.061H5.06v-3.046h1.012V65.99h1.012v-3.046h1.012v-2.03h1.012v-2.03h1.012v-2.031h1.012v-2.03h1.012v-2.032h1.012v-2.03h1.012V48.73h1.012v-1.015h1.012v-2.03h1.012v-2.03h1.012V42.64h1.012v-1.016h1.012V40.61h1.012v-2.03h1.012v-1.016h1.012v-1.015h1.012v-2.03h2.024v-2.03h1.012v-1.016h1.012v-1.015h1.012v-1.015h1.012v-1.016h1.012v-1.015h1.012v-1.015h1.012V25.38h1.012v-1.015h2.024V23.35h1.012v-1.015h1.012V21.32h2.024v-1.015h1.012v-1.016h1.012v-1.015h2.024V17.26h1.012v-1.015h2.024v-1.016h1.012v-1.015H50.6v-1.015h2.024v-1.015h2.024v-1.015h2.024v-1.016h2.024V9.137h2.024V8.122h3.036V7.107h3.036V6.09h2.024V5.076h3.036V4.061H75.9V3.046h4.048V2.03h6.072V1.015h6.072V0Zm27.323 3.046h5.06V4.06h4.048v1.015h3.036v1.016h3.036v1.015h3.036v1.015h2.024v1.015h2.024v1.015h2.024v1.016h2.024v1.015h2.024v1.015h2.024v1.015h2.024v1.016h1.012v1.015h2.024v1.015h1.012v1.015h2.024v1.016h1.012v1.015h1.012v1.015h2.024v1.015h1.012v1.015h1.012v1.016h1.012v1.015h1.012v1.015h2.024v1.015h1.012v1.016h1.012v1.015h1.012v1.015h1.012v1.015h1.012v1.015h1.012v1.016h1.012v2.03h1.012v1.015h-54.648v1.016h-1.012v1.015h-1.012v1.015h-1.012v1.015h-1.012v1.016h-1.012v1.015h-1.012v1.015h-1.012v1.015h-1.012v1.015h-1.012V46.7h-1.012v1.015h-1.012v1.015h-1.012v1.015h-1.012v1.016h-1.012v1.015h-1.012v1.015h-1.012v1.015h-2.024v2.03h2.024v-1.015h1.012v1.016h82.984v1.015h1.012v2.03h1.012v2.03h1.012v3.048h1.012v2.03h1.012v3.046h1.012v4.061h1.012v3.045h1.012v4.061h-96.14v1.016h1.012v1.015h1.012v1.015h1.012v1.015h1.012v1.015h1.012v1.016h1.012v1.015h1.012v1.015h1.012v1.015h1.012v1.016h1.012v1.015h1.012v1.015h1.012v1.015h1.012v1.016h1.012v1.015h1.012v1.015h1.012v1.015h1.012v1.015h1.012v1.016h1.012v-1.016h1.012v1.016h77.671c.253-.085.337 0 .253.253v13.96h-1.012v6.091h-1.012v3.807c.084.254 0 .338-.253.254H145.98c-.253-.084-.337 0-.253.254v1.777h1.012v1.015h1.012v1.015h1.012v1.015h1.012v1.015h1.012v1.016h1.012v1.015h1.012v1.015h1.012v1.015h1.012v1.016h1.012v1.015h1.012v1.015h1.012v1.015h1.012v1.016h1.012v1.015h1.012v1.015h1.012v1.015h1.012v1.015h1.012v1.016h1.012v1.015h1.012v1.015h1.012v1.015h1.012v1.016h1.012v1.015h1.012v1.015h1.012v1.015h1.012v1.015h1.012v1.016h1.012v1.015h1.012v1.015h1.012v1.015h1.012v1.016h1.012v1.015h1.012v1.015h1.012v1.015h-1.012v1.016h-1.012v1.015h-1.012v2.03h-1.012v1.015h-1.012v1.016h-1.012v1.015h-1.012v1.015h-1.012v1.015h-1.012v1.016h-1.012v1.015h-1.012v1.015h-1.012v1.015h-1.012v1.015h-1.012v1.016h-2.024v1.015h-1.012v1.015h-1.012v-2.03h-2.024v-1.016h-1.012v-1.015h-1.012v-2.03h-2.024v-2.031h-2.024v-2.03h-2.024v-1.015h-1.012v-1.016h-1.012v-1.015h-1.012v-1.015h-1.012v-2.03h-2.024v-2.031h-2.024v-1.015h-1.012v-1.015h-1.012v-1.016h-1.012v-1.015h-1.012v-1.015h-1.012V153.3h-1.012v-1.016h-1.012v-1.015h-1.012v-1.015h-1.012v-1.015h-1.012v-1.015h-1.012v-1.016h-1.012v-1.015h-1.012v-1.015h-1.012v-1.015h-1.012v-1.016h-1.012v-1.015h-1.012v-1.015h-1.012v-1.015h-1.012v-1.015h-1.012v-1.016h-1.012v-1.015h-1.012v-1.015h-1.012v-1.015h-1.012v-1.016h-1.012v-1.015h-1.012v-1.015h-1.012v-1.015h-1.012v-1.016h-1.012v-1.015h-1.012v-1.015h-1.012v-1.015h-1.012v-1.015h-1.012v-1.016h-1.012v-1.015h-1.012v-1.015h-1.012v-1.015h-1.012v-1.016h-1.012v-1.015h-1.012v-1.015h-1.012v-1.015h-1.012v-1.016h-1.012v-1.015h-1.012v-1.015h-1.012v-1.015h-1.012v-1.015h-1.012v-1.016H96.14v-1.015h-1.012v-1.015h-1.012v-1.015h-1.012v-1.016h-1.012v-1.015H91.08v-1.015h-1.012v-1.015h-1.012v-1.015h-1.012v-1.016h-1.012v-1.015H86.02v-1.015h-1.012v-1.015h-1.012v-1.016h-1.012v-1.015h-1.012v-1.015H80.96v-1.015h-1.012v-1.016h-1.012v-1.015h-1.012v-1.015h-1.012v-1.015H75.9v-1.015h-1.012V89.34h-1.012v-1.015h-1.012V87.31h-3.036v2.03h-2.024v1.016h-1.012v1.015H65.78v1.015h-1.012v1.015h-1.012v1.016h-1.012v1.015h-1.012v1.015H60.72v1.015h-1.012v1.015h-1.012v1.016h-1.012v2.03h1.012v1.015h1.012v1.016h1.012v1.015h1.012v1.015h1.012v1.015h1.012v1.015h1.012v1.016h1.012v1.015h1.012v1.015h1.012v1.015h1.012v1.016h1.012v1.015h1.012v1.015h1.012v1.015h1.012v1.015h1.012v1.016h1.012v1.015H75.9v1.015h1.012v1.015h1.012v1.016h1.012v1.015h1.012v1.015h1.012v1.015h1.012v1.016h1.012v1.015h1.012v1.015h1.012v1.015h1.012v1.015h1.012v1.016h1.012v1.015h1.012v1.015h1.012v1.015h1.012v1.016h1.012v1.015h1.012v1.015h1.012v1.015h1.012v1.016h1.012v1.015h1.012v1.015h1.012v1.015h1.012v1.015h1.012v1.016h1.012v1.015h1.012v1.015h1.012v1.015h2.024v2.031h2.024v2.03h2.024v2.031h1.012v1.015h2.024v1.015h1.012v2.031h2.024v1.015h1.012v1.015h1.012v2.031h2.024v2.03h2.024v1.015h1.012v1.015h1.012v1.016h1.012v1.015h1.012v1.015h1.012v1.015h1.012v2.031h2.024v2.03h2.024v1.015h1.012v1.016h1.012v1.015h1.012v1.015h1.012v1.015h1.012v1.016h1.012v1.015h1.012v1.015h1.012v1.015h1.012v1.016h1.012v1.015h1.012v1.015h1.012v1.015h1.012v1.015h1.012v1.016h-1.012v1.015h-3.036v1.015h-2.024v1.015h-2.024v1.016h-3.036v1.015h-3.036v1.015h-3.036v1.015h-4.048v1.016h-6.072v-1.016h-1.012v-1.015h-1.012v-1.015h-1.012v-1.015h-1.012v-1.016h-1.012v-1.015h-1.012v-1.015h-1.012v-1.015h-1.012v-1.016h-1.012v-1.015h-1.012v-1.015h-1.012v-1.015h-1.012v-1.015h-1.012v-1.016h-1.012v-1.015h-1.012v-1.015h-1.012v-1.015H101.2v-1.016h-1.012v-1.015h-1.012v-1.015h-1.012v-1.015h-1.012v-1.016H96.14v-1.015h-1.012v-1.015h-1.012v-1.015h-1.012v-1.015h-1.012v-1.016H91.08v-1.015h-1.012v-1.015h-1.012v-1.015h-1.012v-1.016h-1.012v-1.015H86.02v-1.015h-1.012v-1.015h-1.012v-1.015h-1.012v-1.016h-1.012v-1.015H80.96v-1.015h-1.012v-1.015h-1.012v-1.016h-1.012v-1.015H75.9v-2.03h-1.012v-1.016h-1.012v-1.015h-1.012v-1.015h-1.012v-1.015H70.84v-1.015h-2.024v-1.016h-1.012v-1.015h-1.012v-2.03h-2.024v-2.031h-1.012v-1.015h-2.024v-2.03h-2.024v-1.016h-1.012v-2.03h-2.024v-2.031h-2.024v-1.015h-1.012v-1.015h-1.012v-1.015h-1.012v-1.016H50.6v-2.03h-2.024v-1.015h-1.012v-1.015h-1.012v-1.016H45.54v-1.015h-1.012v-1.015h-1.012v-1.015h-1.012v-2.031H40.48v-1.015h-2.024v1.015h-1.012v1.015h-1.012v1.016H35.42v1.015h-1.012v1.015h-1.012v1.015h-1.012v1.016h-1.012v1.015H30.36v1.015h-1.012v1.015h-1.012v1.015h-1.012v1.016H25.3v1.015h1.012v1.015h1.012v1.015h1.012v1.016h1.012v1.015h1.012v1.015h1.012v1.015h1.012v1.016h1.012v1.015h1.012v1.015h1.012v1.015h1.012v1.015h1.012v1.016h1.012v1.015h1.012v1.015h1.012v1.015h1.012v1.016h1.012v1.015h1.012v1.015h1.012v1.015h1.012v1.015h1.012v1.016h1.012v1.015h1.012v1.015h1.012v1.015H50.6v1.016h1.012v1.015h1.012v1.015h1.012v1.015h1.012v1.016h1.012v1.015h1.012v1.015h1.012v1.015h1.012v1.015h1.012v1.016h1.012v1.015h1.012v1.015h1.012v1.015h1.012v1.016h1.012v1.015h1.012v1.015h1.012v1.015h1.012v1.015h1.012v1.016h1.012v1.015h1.012v1.015h1.012v1.015h1.012v1.016h1.012v1.015h1.012v1.015H75.9v1.015h1.012v1.016h1.012v1.015h1.012v1.015h1.012v1.015h1.012v1.015h1.012v1.016h1.012v1.015h1.012v1.015h1.012v1.015h1.012v1.016h1.012v1.015h1.012v1.015h1.012v1.015h1.012v1.016h1.012v1.015h1.012v1.015H86.02v-1.015h-6.072v-1.015H75.9v-1.016h-4.048v-1.015h-3.036v-1.015H65.78v-1.015h-3.036v-1.016H60.72v-1.015h-2.024v-1.015h-2.024v-1.015h-2.024v-1.016h-2.024v-1.015H50.6v-1.015h-2.024v-1.015h-1.012v-1.015H45.54v-1.016h-1.012v-1.015h-2.024v-1.015H40.48v-1.015h-1.012v-1.016h-1.012v-1.015h-1.012v-1.015h-1.012v-1.015h-2.024v-1.016h-1.012v-1.015h-1.012v-1.015h-1.012v-1.015H30.36v-1.015h-1.012v-1.016h-1.012v-1.015h-1.012v-1.015h-1.012v-1.015H25.3v-1.016h-1.012v-2.03h-1.012v-1.015h-1.012v-1.015h-1.012v-1.016H20.24v-2.03h-1.012v-1.015h-1.012v-2.031h-1.012v-1.015h-1.012v-2.031H15.18v-1.015h-1.012v-2.03h-1.012v-2.031h-1.012v-1.015h-1.012v-2.03H10.12v-3.046H9.107v-2.03H8.095v-2.031H7.083v-3.046H6.071v-3.045H5.06v-3.046H4.047v-4.061H3.035v-5.076h1.012v-1.015H5.06v-1.016h1.012v-1.015h1.012v-1.015h1.012v-1.015h1.012v-1.015h1.012v-1.016h1.012v-1.015h1.012v-1.015h1.012v-1.015h1.012v-1.016h1.012v-1.015h1.012v-1.015h1.012v-1.015h1.012v-1.015h1.012v-1.016h1.012v-1.015h1.012v-1.015h1.012v-1.015h1.012v-1.016h1.012v-1.015H25.3v-1.015h1.012v-1.015h1.012v-1.016h1.012v-1.015h1.012v-1.015h1.012v-1.015h1.012v-1.015h1.012V89.34h1.012v-1.015h1.012V87.31h1.012v-1.015h1.012v-1.016h2.024v-2.03h1.012v-1.015h1.012v-1.015h1.012v-1.016h2.024v-1.015h1.012v-1.015h1.012v-1.015h1.012v-1.016h1.012v-2.03h1.012v-1.015h1.012V72.08h2.024v-1.015h1.012V70.05h1.012v-1.015h1.012v-2.03h1.012V65.99h1.012v-1.015h2.024V63.96h1.012v-1.016h1.012V61.93h1.012v-1.015h1.012V59.9h1.012v-1.016h1.012v-2.03h2.024v-1.015h1.012v-1.016h1.012v-1.015h1.012v-1.015h1.012v-1.015h1.012v-1.015h1.012v-2.03h2.024v-1.016H75.9V46.7h1.012v-1.016h1.012V44.67h1.012v-1.015h1.012V42.64h1.012v-2.03h2.024v-1.016h1.012V38.58h1.012v-1.015h1.012v-1.016h1.012v-1.015h1.012v-1.015h1.012v-1.015h1.012v-1.016h1.012v-1.015h1.012v-1.015h1.012v-1.015h1.012v-1.015h1.012V27.41h1.012v-1.015h1.012V25.38h1.012v-1.015h1.012V23.35h1.012v-1.016h1.012V21.32h1.012v-1.015h1.012V19.29h1.012v-1.016h1.012V17.26h1.012v-1.015h1.012V15.23h1.012v-1.016h1.012v-1.015h1.012v-1.015h1.012v-1.015h1.012v-1.015h1.012V9.136h1.012V8.122h1.012V7.107h1.012V6.092h1.012V5.076h1.012V4.061h1.012V3.046ZM299.552 17.26h8.096v1.015h8.096v1.015h4.048v1.015h3.036v1.016h3.036v1.015h2.024v1.015h2.024v1.015h2.024v1.016h2.024v1.015h1.012v1.015h2.024v1.015h1.012v1.015h1.012v1.016h1.012v1.015h-1.012v1.015h-1.012v1.015h-1.012v1.016h-1.012v2.03h-1.012v1.015h-1.012v1.016h-1.012v1.015h-1.012v1.015h-1.012v1.015h-1.012v2.03H328.9v1.016h-1.012v1.015h-1.012v1.015h-1.012v1.016h-1.012v2.03h-1.012v1.015h-1.012v1.016h-1.012v1.015h-2.024v-1.015h-2.024v-1.016h-1.012v-1.015h-1.012v-1.015h-2.024v-1.015h-4.048V46.7h-8.096v1.016h-4.048v1.015h-2.024v1.015h-1.012v1.015h-2.024v1.016h-1.012v1.015h-1.012v2.03h-1.012v1.015h-1.012v2.03h-1.012v3.049h-1.012v12.182h1.012v2.03h1.012v2.031h1.012v2.03h1.012v1.016h1.012v1.015h1.012v1.015h1.012v1.016h1.012v1.015h2.024v1.015h2.024v1.015h4.048v1.016h5.06v-1.016h5.06V85.28h2.024v-1.015h1.012V83.25h2.024v-1.016h1.012V81.22h1.012v-1.015h2.024v1.015h1.012v1.015h1.012v2.03h1.012v1.016h1.012v1.015h1.012v1.016h1.012v1.015h1.012v1.015h1.012v2.03h1.012v1.016h1.012v1.015h1.012v1.015h1.012v1.015h1.012v2.03h1.012v1.016h1.012v1.015h1.012v1.015h1.012v1.016h1.012v1.015h-1.012v1.015h-1.012v1.015h-1.012v1.016h-1.012v1.015h-1.012v1.015h-2.024v1.015h-1.012v1.016h-2.024v1.015h-2.024v1.015h-2.024v1.015h-3.036v1.015h-3.036v1.016h-4.048v1.015h-8.096v1.015h-8.096v-1.015h-8.096v-1.015h-4.048v-1.016h-3.036v-1.015h-3.036v-1.015h-2.024v-1.015h-2.024v-1.015h-1.012v-1.016h-2.024v-1.015h-2.024V106.6h-1.012v-1.015h-1.012v-1.016h-2.024v-1.015h-1.012v-1.015h-1.012v-1.015h-1.012v-1.016h-1.012v-2.03h-1.012v-1.015h-1.012v-1.015h-1.012v-2.03h-1.012v-1.016h-1.012v-2.03h-1.012V89.34h-1.012v-2.03h-1.012v-2.03h-1.012v-3.047h-1.012v-4.061H253v-10.15h-1.012v-3.046H253v-9.137h1.012v-4.06h1.012v-3.046h1.012v-2.03h1.012V44.67h1.012v-2.03h1.012v-2.03h1.012v-2.03h1.012v-1.016h1.012V36.55h1.012v-1.015h1.012v-2.03h1.012v-1.016h1.012v-1.015h1.012v-1.015h1.012v-1.015h1.012v-1.016h2.024v-1.015h1.012v-1.015h1.012v-1.015h2.024v-1.016h2.024v-1.015h2.024v-1.015h2.024V21.32h3.036v-1.016h3.036V19.29h4.048v-1.015h8.096V17.26Zm105.25 0h8.096v1.015h8.096v1.015h5.06v1.015h3.036v1.016h3.036v1.015h2.024v1.015h2.024v1.015h2.024v1.016h1.012v1.015h2.024v1.015h1.012v1.015h2.024v1.015h1.012v1.016h1.012v1.015h1.012v1.015h1.012v1.015h1.012v1.016h1.012v1.015h1.012v1.015h1.012v2.031h1.012v2.03h1.012v1.015h1.012v2.03h1.012v2.032h1.012v2.03h1.012v3.046h1.012v4.061h1.012v7.106h1.012v9.137h-1.012v7.107h-1.012v4.06h-1.012v3.046h-1.012v2.03h-1.012v2.031h-1.012v2.03h-1.012v2.031h-1.012v2.03h-1.012v1.016h-1.012v1.015h-1.012v1.015h-1.012v2.03h-1.012v1.016h-1.012v1.015h-1.012v1.015h-1.012v1.015h-2.024v1.016h-1.012v1.015h-1.012v1.015h-2.024v1.015h-2.024v1.016h-1.012v1.015h-3.036v1.015h-2.024v1.015h-2.024v1.015h-4.048v1.016h-4.048v1.015h-8.096v1.015h-8.096v-1.015h-8.096v-1.015h-4.048v-1.016h-3.036v-1.015h-3.036v-1.015h-2.024v-1.015h-2.024v-1.015h-2.024v-1.016h-2.024v-1.015h-1.012V106.6h-2.024v-1.015h-1.012v-1.016h-1.012v-1.015h-1.012v-1.015h-1.012v-1.015h-1.012v-1.016h-1.012v-1.015h-1.012v-1.015h-1.012v-1.015h-1.012v-2.03h-1.012v-1.016h-1.012v-2.03h-1.012v-2.03h-1.012v-2.031h-1.012v-2.03h-1.012v-2.031h-1.012v-4.061h-1.012v-5.076h-1.012V56.854h1.012v-4.061h1.012v-4.061h1.012v-2.03h1.012V44.67h1.012v-2.03h1.012v-2.03h1.012v-1.015h1.012v-2.03h1.012v-1.016h1.012v-1.015h1.012v-2.03h1.012v-1.016h1.012v-1.015h1.012v-1.015h1.012v-1.015h2.024v-1.016h1.012v-1.015h1.012v-1.015h2.024v-1.015h2.024v-1.016h1.012v-1.015h3.036v-1.015h2.024V21.32h2.024v-1.016h4.048V19.29h4.048v-1.015h8.096V17.26ZM403.79 46.7v1.016h-3.036v1.015h-2.024v1.015h-1.012v1.015h-1.012v1.016h-1.012v1.015h-1.012v1.015h-1.012v2.03h-1.012v1.016h-1.012v4.061h-1.012v12.182h1.012v2.03h1.012v3.046h1.012v1.016h1.012v2.03h1.012v1.015h1.012v1.016h1.012v1.015h2.024v1.015h2.024v1.015h3.036v1.016h9.108v-1.016h3.036V85.28h1.012v-1.015h2.024V83.25h1.012v-1.016h1.012V81.22h1.012v-1.015h1.012v-2.03h1.012v-2.031h1.012v-2.03h1.012V59.899h-1.012v-3.045h-1.012v-2.03h-1.012v-1.016h-1.012v-2.03h-1.012v-1.016h-1.012v-1.015h-2.024v-1.015h-2.024v-1.015h-2.024V46.7H403.79Zm80.96-26.395h49.588v1.015h5.06v1.015h4.048v1.015h3.036v1.016h2.024v1.015h2.024v1.015h1.012v1.015h2.024v1.015h1.012v1.016h1.012v1.015h1.012v1.015h1.012v1.015h1.012v2.03h1.012v2.032h1.012v2.03h1.012v3.046h1.012v6.091h1.012v5.076h-1.012v6.091h-1.012v3.046h-1.012v2.03h-1.012v1.016h-1.012v2.03h-1.012v1.015h-1.012v1.016h-1.012v1.015h-1.012v1.015h-1.012v1.015h-1.012v1.016h-2.024v1.015h-1.012v1.015h-2.024v2.03h1.012v2.032h1.012v2.03h1.012v1.016h1.012v2.03h1.012v1.015h1.012v2.03h1.012v2.03h1.012v1.015h1.012v2.03h1.012v1.016h1.012v2.031h1.012v2.03h1.012v1.015h1.012v2.031h1.012v1.015h1.012v2.03h1.012v1.016h1.012v2.03h1.012v2.031h1.012v1.015h1.012v2.03h1.012v1.015h1.012v1.016h-36.432v-1.016h-1.012v-2.03h-1.012v-2.03h-1.012v-2.031h-1.012v-2.03h-1.012v-1.016h-1.012v-2.03h-1.012v-2.03h-1.012v-2.031h-1.012v-2.03h-1.012V93.4h-1.012v-2.03h-1.012v-1.016h-1.012v-2.03h-1.012v-2.03h-1.012v-2.03h-1.012v-2.031h-1.012v-2.03h-1.012v1.014h-1.012v2.03h1.012v3.049h-1.012v1.015h1.012v1.015h-1.012v25.38h-30.36V20.305Zm30.36 24.365v15.228h11.132v-1.015h2.024v-1.015h2.024v-1.015h1.012v-2.03h1.012V48.73h-1.012V46.7h-2.024v-1.016h-2.024V44.67H515.11Zm73.874-24.365h76.912V46.7h-22.264v67.006H612.26v-65.99h-1.012V46.7h-22.264V20.305Zm105.246 0h64.768V46.7h-34.155c-.253-.085-.337 0-.253.253v7.868h32.384v24.368h-32.131c-.253-.085-.337 0-.253.254v7.868h36.432v26.395H694.23V20.305Zm88.047 0h35.42v2.03h1.012v4.061h1.012v3.046h1.012v4.061h1.012v4.061h1.012v3.045h1.012v4.061h1.012v4.061h1.012v4.061h1.012v4.061h1.012v3.046h1.012v4.06h1.012v3.046h1.012v4.061h1.012v4.061h1.012v3.046h1.012v-3.046h1.012v-4.061h1.012v-4.061h1.012V63.96h1.012v-4.061h1.012v-4.061h1.012v-4.061h1.012v-4.061h1.012v-4.061h1.012v-3.046h1.012v-5.076h1.012v-3.046h1.012v-4.06h1.012v-4.061h1.012v-4.061h35.42v3.045h-1.012v3.046h-1.012v3.046h-1.012v2.03h-1.012v3.046h-1.012v3.046h-1.012v3.045h-1.012v2.03h-1.012v3.046h-1.012v3.046h-1.012v3.046h-1.012v3.045h-1.012v2.03h-1.012V59.9h-1.012v3.045h-1.012v2.03h-1.012v3.045h-1.012v3.046h-1.012v3.046h-1.012v2.03h-1.012v3.046h-1.012v3.046h-1.012v3.045h-1.012v2.03h-1.012v3.046h-1.012v3.046h-1.012v3.046h-1.012v2.03h-1.012v3.046h-1.012v3.046h-1.012v3.045h-1.012v2.031h-1.012v3.045h-1.012v1.016h-35.42v-3.046h-1.012v-3.046h-1.012v-3.045h-1.012v-3.046h-1.012v-2.03h-1.012v-3.046h-1.012V93.4h-1.012v-3.046h-1.012V87.31h-1.012v-2.03h-1.012v-3.046h-1.012v-3.046h-1.012v-3.046h-1.012v-3.045h-1.012v-2.03h-1.012V68.02h-1.012v-3.045h-1.012v-3.046h-1.012v-3.046h-1.012v-2.03h-1.012v-3.046h-1.012v-3.046h-1.012v-3.045h-1.012V44.67h-1.012v-3.046h-1.012v-2.03h-1.012v-3.046h-1.012v-3.045h-1.012v-3.046h-1.012v-3.046h-1.012v-3.045h-1.012v-2.031h-1.012v-2.03Zm139.655 0h33.396v1.015h1.012v3.046h1.012v2.03h1.012v3.046h1.012v2.03h1.012v2.03h1.012v3.046h1.012v3.046h1.012v2.03h1.012v3.046h1.012v2.03h1.012v3.046h1.012v2.03h1.012v3.046h1.012v3.046h1.012v2.03h1.012v3.046h1.012v2.03h1.012v3.046h1.012v2.03h1.012v3.048h1.012v2.03h1.012v3.046h1.012v3.045h1.012v2.03h1.012v3.047h1.012v2.03h1.012v3.046h1.012v2.03h1.012v3.046h1.012v2.03h1.012v3.046h1.012v3.046h1.012v2.03h1.012v3.046h1.012v2.029h1.012v2.031h-34.408v-2.031h-1.012v-3.045h-1.012v-3.046h-1.012v-3.046h-1.012v-2.03h-1.012v-1.015h-1.012v1.015h-2.024v-1.015h-2.024v1.015h-24.288v1.015h-1.012v3.046h-1.012v3.045h-1.012v3.046h-1.012v2.792c.084.254 0 .338-.253.254H885.5v-2.031h1.012v-3.045h1.012v-2.031h1.012v-3.046h1.012v-2.03h1.012v-3.046h1.012v-2.03h1.012V93.4h1.012v-3.046h1.012v-2.03h1.012v-3.046h1.012v-2.03h1.012v-2.03h1.012v-3.046h1.012v-3.046h1.012v-2.03h1.012V70.05h1.012v-2.03h1.012v-3.046h1.012v-2.03h1.012v-3.046h1.012v-2.03h1.012v-3.047h1.012v-2.03h1.012v-3.046h1.012v-2.03h1.012V44.67h1.012v-2.03h1.012v-3.046h1.012v-3.046h1.012v-2.03h1.012v-2.03h1.012v-3.046h1.012v-2.03h1.012v-3.046h1.012V21.32h1.012v-1.015Zm16.192 33.502v1.015h-1.012v3.046H936.1v3.046h-1.012v3.045h-1.012v3.046h-1.012v3.046h-1.012v3.046h-1.012v3.045h14.168v-4.061h-1.012v-3.045h-1.012V65.99h-1.012v-3.046h-1.012V59.9h-1.012v-3.046h-1.012v-3.046h-1.012Zm42.505-33.502h11.891c.253-.084.337 0 .253.254v1.777h-1.012v1.015h-3.036v10.152h-1.012v1.015h-2.024v-1.015h-1.012V23.351h-4.048v-3.046Zm15.18 0h5.061v3.045h1.01v3.046h1.01v2.03h1.01v-2.03h1.02V23.35h1.01v-3.045h6.07v13.959c.08.254 0 .338-.25.254h-3.8v-8.122h-1.01v3.046h-1.01v2.03h-1.01v3.046h-3.04v-2.03h-1.01v-3.046h-1.013v-3.046h-1.012v8.122h-3.036V20.305Zm-623.394 112.69h4.048v1.015h1.012v1.016h1.012v5.076h-1.012v1.015h-2.024v1.015h-3.036v-1.015h-1.012v-1.015h-1.012v-2.031h-1.012v-2.03h1.012v-2.031h2.024v-1.015Zm87.035 0h5.06v1.015h1.012v2.031h1.012v2.03h-1.012v2.031h-1.012v1.015h-1.012v1.015h-4.048v-1.015h-1.012v-1.015h-1.012v-5.076h1.012v-1.016h1.012v-1.015Zm-191.271 13.198h9.108v1.016h2.024v1.015h2.024v1.015h1.012v1.015h2.024v-3.045h7.084v31.472h-1.012v1.015h-6.072v-4.061h-2.024v2.03h-2.024v1.016h-2.024v1.015h-4.048v1.015h-3.036v-1.015h-4.048v-1.015h-3.036v-1.016h-1.012v-1.015h-1.012v-1.015h-1.012v-1.015h-1.012v-1.015h-1.012v-2.031h-1.012v-2.03h-1.012v-3.046h-1.012v-6.091h1.012v-4.061h1.012v-2.031h1.012v-2.03h1.012v-1.015h1.012v-1.016h1.012v-1.015h1.012v-1.015h2.024v-1.015h3.036v-1.016Zm4.048 6.092v1.015h-3.036v1.015h-2.024v1.015h-1.012v1.016h-1.012v1.015h-1.012v3.046h-1.012v5.076h1.012v3.045h1.012v1.016h1.012v1.015h1.012v1.015h1.012v1.015h2.024v1.016h7.084v-1.016h2.024v-1.015h1.012v-1.015h1.012v-1.015h1.012v-2.031h1.012v-3.046h1.012v-3.045h-1.012v-3.046h-1.012v-2.03h-1.012v-1.016h-1.012v-1.015h-2.024V153.3h-3.036v-1.015h-3.036Zm39.468-6.092h9.108v1.016h3.036v1.015h1.012v1.015h1.012v1.015h1.012v1.016h1.012v-4.061h7.084v34.517h-1.012v3.046h-1.012v2.03h-1.012v1.016h-1.012v1.015h-1.012v1.015h-1.012v1.015h-2.024v1.016h-2.024v1.015h-13.156v-1.015h-3.036v-1.016h-2.024v-1.015h-1.012v-1.015h-1.012v-1.015h-1.012v-1.016h-1.012v-2.03h2.024v-1.015h2.024v-1.015h3.036v1.015h1.012v1.015h1.012v1.015h2.024v1.015h9.108v-1.015h2.024v-1.015h1.012v-1.015h1.012v-2.031h1.012v-7.106h-1.012v1.015h-1.012v1.015h-1.012v1.015h-2.024v1.016h-3.036v1.015h-7.084v-1.015h-3.036v-1.016h-2.024v-1.015h-1.012v-1.015h-1.012v-1.015h-1.012v-1.015h-1.012v-1.016h-1.012v-2.03h-1.012v-2.031h-1.013v-11.167h1.013v-3.046h1.012V153.3h1.012v-2.03h1.012v-1.016h2.024v-1.015h1.012v-1.015h1.012v-1.015h3.036v-1.016Zm4.048 6.092v1.015h-3.036v1.015h-2.024v1.015h-1.012v1.016h-1.012v2.03h-1.012v4.061h-1.012v1.015h1.012v4.061h1.012v1.015h1.012v2.031h1.012v1.015h2.024v1.015h5.06v1.016h1.012v-1.016h3.036v-1.015h2.024v-1.015h1.012v-1.015h1.012v-1.016h1.012v-2.03h1.012v-7.107h-1.012v-2.03h-1.012v-1.015h-1.012v-1.016h-1.012v-1.015h-1.012V153.3h-3.036v-1.015h-4.048Zm43.519-6.092h4.048v7.107h-1.012v1.015h-5.06v1.015h-1.012v1.016h-1.012v1.015h-1.012v1.015h-1.012v20.305h-1.012v1.015h-6.072v-32.234c-.084-.253 0-.338.253-.253h6.831v2.03h-1.012v1.015h1.012v1.016h1.012v-2.031h1.012v-1.015h1.012v-1.015h3.036v-1.016Zm35.42 0h9.108v1.016h3.036v1.015h1.012v1.015h1.012v1.015h1.012v1.016h1.012v2.03h-1.012v1.015h-2.024v1.015h-3.036v-1.015h-1.012V153.3h-2.024v-1.015h-5.06v1.015h-1.012v1.015h-1.012v3.046h1.012v1.015h2.024v1.015h3.036v1.016h3.036v1.015h3.036v1.015h2.024v1.015h1.012v1.015h1.012v2.031h1.012v8.122h-1.012v1.015h-1.012v1.015h-1.012v1.015h-1.012v1.016h-2.024v1.015h-5.06v1.015h-3.036v-1.015h-5.06v-1.015h-1.012v-1.016h-2.024v-1.015h-1.012v-1.015h-1.012v-1.015h-1.012v-2.031h1.012v-1.015h1.012v-1.015h2.024v-1.015h2.024v1.015h1.012v1.015h1.012v1.015h1.012v1.016h7.084v-1.016h2.024v-4.061h-1.012v-1.015h-2.024v-1.015h-3.036v-1.015h-3.036v-1.016h-3.036v-1.015h-2.024v-1.015h-1.012v-1.015h-1.012v-2.031h-1.012v-7.106h1.012v-2.031h1.012v-1.015h1.012v-1.015h2.024v-1.015h2.024v-1.016Zm36.431 0h9.108v1.016h3.036v1.015h2.024v1.015h1.012v1.015h1.012v1.016h1.012v1.015h1.012v1.015h1.012v1.015h-1.012v1.015h-1.012v1.016h-2.024v1.015h-3.036v-2.031h-2.024v-1.015h-1.012V153.3h-9.108v1.015h-2.024v1.015h-1.012v2.031h-1.012v1.015h-1.012v4.061h-1.012v2.03h1.012v3.046h1.012v2.031h1.012v1.015h1.012v1.015h2.024v1.015h2.024v1.016h5.06v-1.016h2.024v-1.015h2.024v-1.015h1.012v-1.015h1.012v-1.016h1.012v1.016h2.024v1.015h2.024v1.015h1.012v1.015h-1.012v2.031h-1.012v1.015h-1.012v1.015h-2.024v1.015h-1.012v1.016h-2.024v1.015h-5.06v1.015h-3.036v-1.015h-5.06v-1.015h-2.024v-1.016h-2.024v-1.015h-1.012v-1.015h-1.012v-1.015h-1.012v-1.015h-1.012v-2.031h-1.012v-2.03h-1.012v-6.092h-1.012v-1.015h1.012v-5.076h1.012v-3.046h1.012V153.3h1.012v-1.015h1.012v-1.015h1.012v-1.016h1.012v-1.015h1.012v-1.015h2.024v-1.015h3.036v-1.016Zm54.648 0h10.12v1.016h3.036v1.015h2.024v1.015h1.012v1.015h1.012v1.016h1.012v1.015h1.012v2.03h1.012v2.031h1.012v3.045h1.012v6.092h-1.012v1.015h-25.047c-.253-.084-.337 0-.253.254v1.776h1.012v2.031h2.024v1.015h1.012v1.015h2.024v1.016h8.096v-1.016h2.024v-1.015h1.012v-1.015h4.048v1.015h1.012v1.015h2.024v2.031h-1.012v1.015h-1.012v1.015h-2.024v1.015h-1.012v1.016h-2.024v1.015h-5.06v1.015h-3.036v-1.015h-5.06v-1.015h-3.036v-1.016h-2.024v-1.015h-1.012v-1.015h-1.012v-1.015h-1.012v-1.015h-1.012v-2.031h-1.012v-2.03h-1.012v-12.183h1.012v-3.046h1.012V153.3h1.012v-1.015h1.012v-1.015h1.012v-1.016h1.012v-1.015h1.012v-1.015h2.024v-1.015h2.024v-1.016Zm3.036 6.092v1.015h-3.036v1.015h-1.012v1.015h-1.012v1.016h-1.012v2.03h-1.012v2.031h19.228v-2.031h-1.012v-1.015h-1.012v-2.031h-1.012v-1.015h-1.012V153.3h-3.036v-1.015h-5.06Zm40.48-6.092h9.108v1.016h2.024v1.015h2.024v1.015h1.012v1.015h1.012v2.031h1.012v3.045h1.012v24.366h-7.084v-22.335h-1.012v-2.031h-1.012v-1.015h-1.012V153.3h-2.024v-1.015h-4.048v1.015h-3.036v1.015h-1.012v1.015h-1.012v2.031h-1.012v4.061h-1.012v1.015h1.012v16.244h-1.012v1.015h-6.072v-32.234c-.084-.253 0-.338.253-.253h6.831v1.015h-1.012v2.03h2.024v-1.015h1.012v-1.015h1.012v-1.015h2.024v-1.016Zm37.445 0h10.12v1.016h3.036v1.015h2.024v1.015h1.012v1.015h1.012v1.016h1.012v1.015h1.012v1.015h1.012v1.015h-1.012v1.015h-2.024v1.016h-1.012v1.015h-3.036v-1.015h-1.012v-1.016h-1.012v-1.015h-2.024V153.3h-8.096v1.015h-2.024v1.015h-1.012v1.016h-1.012v2.03h-1.012v2.031h-1.012v5.076h1.012v3.045h1.012v1.016h1.012v1.015h1.012v1.015h1.012v1.015h3.036v1.016h5.06v-1.016h2.024v-1.015h2.024v-1.015h1.012v-2.031h2.024v1.016h2.024v1.015h2.024v1.015h1.012v1.015h-1.012v1.016h-1.012v2.03h-1.012v1.015h-2.024v1.015h-1.012v1.016h-3.036v1.015h-4.048v1.015h-3.036v-1.015h-5.06v-1.015h-2.024v-1.016h-2.024v-1.015h-1.012v-1.015h-1.012v-1.015h-1.012v-1.015h-1.012v-2.031h-1.012v-2.03h-1.012v-3.046h-1.012v-6.091h1.012v-4.061h1.012v-2.031h1.012v-2.03h1.012v-1.015h1.012v-1.016h1.012v-1.015h2.024v-1.015h2.024v-1.015h2.024v-1.016Zm37.442 0h10.12v1.016h3.036v1.015h1.012v1.015h2.024v1.015h1.012v1.016h1.012v2.03h1.012v1.015h1.012v3.046h1.012v9.137h-25.047c-.253-.084-.337 0-.253.254v1.776h1.012v2.031h1.012v1.015h1.012v1.015h2.024v1.016h9.108v-1.016h2.024v-1.015h1.012v-1.015h3.036v1.015h2.024v1.015h1.012v2.031h-1.012v1.015h-1.012v1.015h-1.012v1.015h-1.012v1.016h-3.036v1.015h-4.048v1.015h-4.048v-1.015h-5.06v-1.015h-2.024v-1.016h-2.024v-1.015h-1.012v-1.015h-1.012v-1.015h-1.012v-1.015h-1.012v-1.016h-1.012v-2.03h-1.012v-4.061h-1.012v-7.107h1.012v-3.045h1.012v-2.031h1.012v-2.03h1.012v-1.015h1.012v-1.016h1.012v-1.015h1.012v-1.015h2.024v-1.015h3.036v-1.016Zm2.024 6.092v1.015h-2.024v1.015h-2.024v1.015h-1.012v2.031h-1.012v2.03h-1.012v1.016h19.228v-3.046h-1.012v-1.015h-1.012v-2.031h-2.024V153.3h-2.024v-1.015h-6.072Zm-235.797-5.077h6.831c.253-.084.337 0 .253.254v32.234h-6.072v-1.016h-1.012v-31.472Zm88.047 0h6.83c.253-.084.337 0 .253.254v31.218h-1.012v1.016h-6.071v-32.488Z"/>
    </g>
  </g>
  <defs>
    <clipPath id="a">
      <path fill="#fff" d="M0 0h1012v200H0z"/>
    </clipPath>
  </defs>
</svg>
