<svg xmlns="http://www.w3.org/2000/svg" width="1021" height="200" fill="none" viewBox="0 0 1021 200">
  <mask id="a" width="1021" height="195" x="0" y="0" maskUnits="userSpaceOnUse" style="mask-type:luminance">
    <path fill="#fff" d="M1021 0H0v194.343h1021V0Z"/>
  </mask>
  <g mask="url(#a)">
    <path fill="#000" d="M170.542 1.424c-49.88 0-90.461 40.505-90.461 90.29v42.069h18.783v-25.574h63.145c-2.159 37.52-33.417 67.392-71.548 67.392-39.525 0-71.684-32.098-71.684-71.547v-42.07H0v42.07c0 49.784 40.582 90.288 90.461 90.288s90.461-40.504 90.461-90.288v-42.07h-18.783V89.46H98.916c1.206-38.407 32.859-69.288 71.626-69.288 39.524 0 71.684 32.091 71.684 71.541v42.07h18.776v-42.07c0-49.784-40.581-90.289-90.46-90.289ZM378.365 50.42h-36.75v36.434h-17.201V1.232h17.201v35.204h36.75V1.232h17.208v85.622h-17.208V50.421Zm80.254-35.333h-32.567v21.466h28.878v13.622h-28.878v22.688h32.567v13.992h-49.775V1.109h49.775v13.978Zm11.92-13.858h19.542l27.29 63.665L544.648 1.23h19.426v85.622h-17.208V31.16l-22.985 55.692h-13.032L487.747 31.16v55.692h-17.208V1.23Zm123.998-.001h-17.209V86.85h17.209V1.228Zm42.896 86.485c-17.819 0-31.588-9.326-31.839-25.523h18.441c.496 6.88 5.047 11.415 13.027 11.415 8.111 0 12.908-4.29 12.908-10.431 0-18.522-44.251-7.358-44.125-38.395C605.845 9.325 618.388 0 636.081 0c17.574 0 29.626 8.956 30.727 24.416h-18.931c-.371-5.649-4.917-10.063-12.286-10.186-6.76-.245-11.796 3.068-11.796 10.057 0 17.175 44 7.61 44 37.78 0 13.5-10.815 25.646-30.362 25.646Zm72.388-47.595c9.703 0 14.003-4.788 14.003-12.392 0-7.85-4.3-12.516-14.003-12.516h-13.644v24.908h13.644Zm.736 13.862h-14.38v32.874h-17.208V1.232h31.588c20.654 0 30.972 11.648 30.972 26.494 0 13.007-8.847 26.254-30.972 26.254Zm93.402-3.56h-36.75v36.434H750V1.232h17.209v35.204h36.75V1.232h17.203v85.622h-17.203V50.421Zm80.256-35.333h-32.569v21.466h28.885v13.622h-28.885v22.688h32.569v13.992h-49.777V1.109h49.777v13.978Zm43.504.366h-14.38v25.154h14.38c9.583 0 13.883-5.028 13.883-12.755 0-7.617-4.3-12.399-13.883-12.399Zm.616-14.224c20.642 0 30.972 11.894 30.972 26.254 0 10.426-5.778 20.974-19.541 24.65l20.522 34.718H940.37l-18.925-33.366h-8.106v33.366h-17.214V1.23h32.21Zm42.88-.124v85.752H1021V72.866h-32.576V50.177h28.886V36.555h-28.886V15.09H1021V1.105h-49.785ZM351.326 158.048h-17.155v26.662h17.479c9.772 0 15.639-4.88 15.639-13.117 0-8.348-6.295-13.545-15.963-13.545Zm-.758-32.622h-16.397v24.494h16.61c9.233 0 14.55-4.55 14.55-12.244 0-7.48-5.103-12.25-14.763-12.25Zm1.951 67.406h-28.23v-75.534h27.147c15.957 0 23.997 8.671 23.997 19.181 0 9.539-5.972 15.065-13.253 17.447 8.254 1.411 14.991 9.319 14.991 18.638 0 11.382-9.019 20.268-24.652 20.268Zm61.451-67.409h-14.55v28.609h14.55c11.177 0 16.066-6.063 16.066-14.515 0-8.562-4.778-14.094-16.066-14.094Zm0-8.122c17.804 0 26.272 9.862 26.272 22.216 0 9.649-5.317 18.857-18.025 21.672l19.003 31.645h-11.832l-18.025-30.888H399.42v30.888h-9.881v-75.533h24.431Zm68.496 12.568 13.68 38.149h-27.361l13.681-38.149Zm-5.648-12.14-27.361 75.1h10.426l6.081-16.793h33.002l6.076 16.793h10.432l-27.251-75.1h-11.405Zm98.902-.536v60.029l-39.738-60.029h-9.88v75.637h9.88v-60.144l39.738 60.144h9.885v-75.637h-9.885Zm48.956 67.514c19.758 0 30.077-11.053 30.077-29.477 0-18.423-10.319-29.91-30.077-29.91h-13.689v59.387h13.689Zm40.167-29.477c0 23.401-15.309 37.599-40.167 37.599h-23.563v-75.527h23.563c24.858 0 40.167 14.521 40.167 37.928Zm35.717 38.359c-15.206 0-25.958-8.451-26.169-20.915h10.529c.656 6.284 5.105 12.574 15.64 12.574 9.548 0 15.195-5.423 15.195-12.574 0-20.372-40.931-7.365-40.931-35.437 0-12.464 10.096-20.916 25.086-20.916 14.442 0 23.888 7.915 25.074 19.401H714.13c-.656-5.093-5.436-10.839-14.659-10.949-8.14-.207-14.551 4.012-14.551 12.147 0 19.498 40.829 7.364 40.829 35.32 0 10.73-8.796 21.349-25.189 21.349Z"/>
  </g>
</svg>
