<svg xmlns="http://www.w3.org/2000/svg" width="569" height="200" fill="none" viewBox="0 0 569 200">
  <path fill="#000" d="M195.496 73.046c.007-7.155.007-7.172 7.146-7.181 23.881-.033 47.763-.004 71.643-.138 3.276-.02 5.526.933 7.55 3.569 7.63 9.94 15.51 19.69 23.187 29.595 1.809 2.334 3.814 3.393 6.837 3.369 15.516-.122 31.032-.141 46.547.008 3.501.034 5.772-1.156 7.701-4.027 20.737-30.86 41.56-61.662 62.336-92.496.865-1.283 2.318-2.59 1.227-4.347-1.011-1.63-2.834-1.312-4.425-1.316-9.444-.018-18.893.153-28.332-.077-3.816-.094-6.216 1.194-8.3 4.374-15.355 23.435-30.841 46.783-46.313 70.14-2.862 4.322-3.489 4.308-6.577.285-10.01-13.04-20.054-26.052-29.999-39.141-1.693-2.227-3.559-3.33-6.441-3.327-44.525.06-89.049.034-133.573.05-4.603.002-5.382.758-5.386 5.486-.044 50.643-.033 101.287-.119 151.931-.006 3.521 1.344 4.715 4.792 4.71 43.175-.078 86.35-.084 129.526-.036 2.991.003 5.043-.9 6.695-3.499 3.538-5.568 7.355-10.959 11.05-16.428 7.467-11.05 14.921-22.109 22.397-33.152 2.241-3.312 3.183-3.327 5.632-.158.576.745 1.075 1.55 1.62 2.319 11.234 15.818 22.512 31.606 33.66 47.484 1.744 2.483 3.734 3.489 6.738 3.461 12.008-.113 24.016-.021 36.025-.071 1.524-.007 3.276.506 4.587-1.187-.235-1.471-1.233-2.584-2.097-3.758-15.977-21.698-31.994-43.367-47.895-65.121-2.132-2.918-4.566-4.022-8.175-3.989-16.729.154-33.462.184-50.19-.043-4.027-.055-6.42 1.385-8.606 4.6-7.345 10.805-14.967 21.422-22.423 32.153-1.463 2.106-3.038 3.644-5.846 3.641-25.771-.026-51.54-.009-77.311.031-3.23.005-4.56-1.325-4.433-4.67.234-6.187.182-12.387.156-18.581-.025-5.88.077-6.042 6.153-6.056 14.032-.03 28.064-.038 42.096-.081 5.066-.016 5.505-.435 5.539-5.581.053-7.811.047-15.624.013-23.436-.026-6.249-.604-6.815-7.059-6.831-14.167-.036-28.335-.101-42.5.018-3.51.03-4.901-1.337-4.851-4.74.082-5.656.007-11.314-.002-17.756Zm266.86 4.972c1.072-.567 2.128-1.168 3.22-1.696 17.675-8.547 38.477-3.255 49.664 12.627 11.502 16.329 9.635 37.296-4.561 51.214-19.999 19.607-53.077 13.126-64.217-12.873-2.121-4.948-4.698-6.606-9.891-6.419-10.781.388-21.583.154-32.376.219-5.935.037-6.633.919-5.514 6.642 8.918 45.628 51.584 75.563 97.519 68.417 60.401-9.397 92.191-76.437 60.054-128.318-19.343-31.225-48.669-44.246-85.206-40.222-35.993 3.964-67.15 34.046-72.535 69.466-.623 4.097.162 5.111 4.39 5.126 12.142.043 24.286-.075 36.427.048 3.337.034 5.194-1.217 6.34-4.332 3.082-8.389 8.75-14.739 16.686-19.899ZM141.991 35.36c.024-3.314-2.086-3.962-4.836-3.957a3166.94 3166.94 0 0 1-23.876-.05c-5.999-.035-6.373.3-6.374 6.396-.006 25.72.012 51.44-.037 77.161-.004 1.76.698 3.801-1.713 5.656L1.463 24.369C-.374 26.124.053 27.68.05 29.094.022 64.106.008 99.118.001 134.13c-.002 18.583-.006 37.166.034 55.75.011 4.92.453 5.32 5.304 5.328 7.959.014 15.917-.003 23.875-.038 5.714-.026 5.943-.225 5.945-5.937.011-24.912-.023-49.824.006-74.737.002-1.784-.652-3.812 1.825-5.784L140.515 200l1.497-.647c0-54.422 0-108.844-.021-163.993Z"/>
</svg>
