<svg xmlns="http://www.w3.org/2000/svg" width="545" height="200" fill="none" viewBox="0 0 545 200">
  <path fill="#000" d="M8.086 138.223c-1.792 0-3.446-.069-5.092.021-1.394.075-1.81-.529-1.79-1.839.051-3.358.017-6.718.017-10.077v-47.97c0-2.052.037-2.048 2.104-2.335 8.521-1.182 17.085-1.435 25.664-1.075 4.768.2 9.461.95 13.82 3.08 5.906 2.885 9.232 7.574 9.707 14.195.517 7.206-2.686 12.434-8.64 16.171-.233.147-.472.284-.782.469 5.064 4.054 6.535 9.978 8.296 15.742 1.224 4.008 2.398 8.031 3.604 12.044.312 1.037-.058 1.554-1.28 1.564-3.111.026-6.224.01-9.336.01-2.31 0-4.623-.053-6.931.022-1.12.037-1.816-.379-2.152-1.401a3296.76 3296.76 0 0 1-4.242-13.025c-.334-1.03-.585-2.089-.956-3.105-1.145-3.141-3.248-5.013-6.735-5.025-.977-.003-1.953-.095-3.101-.156v1.642c0 6.387.002 12.773-.003 19.16-.002 1.739-.144 1.881-1.845 1.884-3.395.008-6.79.003-10.327.004Zm23.782-39.04c3.095-3.363 1.988-7.894-2.344-9.148-3.006-.87-6.11-.728-9.16-.386v11.874c1.185 0 2.265.045 3.341-.009 2.825-.142 5.658-.292 8.163-2.33Zm217.584 18.308V86.689c.001-2.139.004-2.14 2.063-2.14 5.329 0 10.659.034 15.987-.027 1.136-.013 1.784.327 2.34 1.334 4.938 8.941 9.926 17.855 14.771 26.546 0-.235.005-.891-.001-1.547-.08-8.275-.152-16.55-.253-24.825-.013-1.075.35-1.514 1.481-1.5 4.055.05 8.113.07 12.167-.011 1.323-.027 1.711.413 1.706 1.695-.035 9.983-.018 19.967-.018 29.95 0 6.766-.029 13.532.022 20.297.01 1.352-.408 1.811-1.784 1.79a490.628 490.628 0 0 0-14.148-.003c-1.098.014-1.697-.356-2.21-1.31-5.663-10.535-11.363-21.05-16.98-31.434 0 2.063-.016 4.371.003 6.679.051 6.242.121 12.483.174 18.725.017 1.987-.017 3.975.012 5.962.015.964-.391 1.365-1.352 1.36-4.197-.019-8.395-.036-12.592.01-1.196.013-1.402-.579-1.399-1.587.022-6.34.011-12.68.011-19.162ZM116.873 92.403c5.521 6.288 7.173 13.665 6.534 21.697-.45 5.651-2.362 10.766-6.01 15.149-4.016 4.826-9.21 7.736-15.278 9.03-6.96 1.483-13.877 1.375-20.521-1.464-9.783-4.181-14.838-11.843-15.758-22.318-.741-8.442 1.409-16.032 7.294-22.298 4.326-4.605 9.79-7.154 15.962-8.078 6.882-1.03 13.623-.496 20.012 2.547 2.922 1.392 5.531 3.227 7.765 5.735ZM85.228 102.2c-2.948 5.565-3.2 11.291-.7 17.032 1.882 4.317 5.304 6.751 10.061 6.73 4.808-.022 8.231-2.471 10.088-6.896 2.126-5.066 2.094-10.214-.048-15.274-1.736-4.1-4.779-6.65-9.315-6.963-4.32-.299-7.655 1.52-10.086 5.371Zm298.268 23.436c-.374.341-.74.647-.842 1.025a435.885 435.885 0 0 0-2.667 10.255c-.252 1.027-.762 1.338-1.783 1.328-4.621-.046-9.243-.017-13.865-.023-1.66-.003-1.916-.359-1.414-1.954 3.578-11.367 7.162-22.732 10.736-34.1 1.667-5.302 3.351-10.6 4.951-15.922.388-1.293.981-1.754 2.374-1.734 5.988.088 11.978.06 17.967.018 1.012-.007 1.48.306 1.811 1.3 5.593 16.804 11.231 33.593 16.853 50.388.559 1.67.307 2.003-1.474 2.005-4.858.006-9.715-.018-14.573.018-1.008.008-1.509-.32-1.804-1.331-.978-3.345-2.099-6.647-3.076-9.992-.287-.982-.692-1.331-1.744-1.311-3.772.074-7.545.03-11.45.03Zm3.561-18.302-1.588 5.777h8.176l-4.435-14.255c-.719 2.799-1.42 5.522-2.153 8.478Zm-162.441-3.191c1.839 0 3.539.05 5.234-.019 1.127-.046 1.494.412 1.482 1.498-.038 3.501-.046 7.003.004 10.503.017 1.217-.38 1.656-1.643 1.644-6.036-.057-12.073-.025-18.11-.025h-1.063v6.878h1.437c6.697 0 13.394.031 20.091-.027 1.291-.011 1.746.362 1.719 1.678a285.401 285.401 0 0 0-.005 10.22c.019 1.231-.307 1.763-1.67 1.758a5768.595 5768.595 0 0 0-36.504-.008c-1.144.003-1.568-.319-1.566-1.528.033-16.891.034-33.782-.002-50.673-.003-1.24.454-1.513 1.578-1.51 11.79.03 23.581.03 35.371-.002 1.186-.003 1.694.292 1.667 1.588-.074 3.5-.061 7.002-.004 10.503.02 1.181-.391 1.558-1.559 1.55-6.319-.044-12.639-.022-18.959-.022h-1.605v5.994h14.107Zm-87.379.717c-1.717-8.882 2.249-15.874 10.708-19.195 5.274-2.07 10.746-2.203 16.276-1.832 3.73.25 7.331 1.109 10.823 2.466 1.103.429 1.394.992 1.033 2.15a314.825 314.825 0 0 0-2.972 10.172c-.334 1.213-.87 1.491-2.034.999-4.356-1.842-8.889-2.75-13.631-2.303-.785.074-1.655.178-2.298.574-.649.4-1.427 1.151-1.479 1.803-.052.656.585 1.537 1.165 2.03.614.521 1.503.74 2.295 1.024 3.449 1.235 6.972 2.289 10.345 3.703 4.409 1.848 8.201 4.569 9.862 9.339 2.627 7.544.23 16.829-9.805 21.011-5.773 2.406-11.806 2.673-17.906 2.126-4.043-.363-7.943-1.414-11.724-2.94-1.368-.551-1.72-1.239-1.306-2.682.947-3.306 1.724-6.661 2.569-9.997.413-1.63.668-1.734 2.224-1.065 5.253 2.257 10.648 3.747 16.448 2.956.279-.038.562-.074.831-.153 1.31-.381 2.583-.897 2.722-2.479.126-1.434-1.029-2.099-2.09-2.562a60.824 60.824 0 0 0-5.921-2.222c-4.151-1.317-8.137-2.919-11.476-5.835-2.181-1.904-3.776-4.188-4.659-7.088Zm192.676-20.31h28.292c1.771 0 1.898.129 1.9 1.949.004 3.406-.022 6.812.012 10.217.011 1.132-.381 1.579-1.566 1.56-3.913-.06-7.827-.024-11.741-.025h-1.542v1.647c0 12.111.001 24.221-.002 36.331 0 1.961-.037 1.993-1.959 1.994-4.244.002-8.489-.045-12.731.027-1.386.024-1.79-.472-1.786-1.818.039-11.968.023-23.937.023-35.905v-2.275h-6.556c-2.216 0-4.433-.035-6.648.018-.994.024-1.299-.332-1.286-1.32.05-3.595.064-7.191-.005-10.785-.024-1.226.327-1.659 1.59-1.641 4.621.064 9.242.025 14.005.025Zm126.522 39.564c4.482.001 8.821-.002 13.161.003 1.732.002 1.807.084 1.808 1.867.002 3.549-.031 7.099.02 10.647.016 1.146-.345 1.612-1.535 1.609a7998.167 7998.167 0 0 0-35.661 0c-1.168.002-1.558-.421-1.556-1.587.026-16.847.026-33.694 0-50.54-.002-1.152.34-1.598 1.534-1.585 4.434.052 8.869.061 13.302-.004 1.272-.019 1.596.439 1.593 1.652-.037 12.02-.022 24.04-.022 36.06v1.878h7.356Zm88.56-71.784c-7.942 1.27-15.906 2.412-23.816 3.86-4.357.797-8.557 2.285-12.115 5.099-.8.632-1.379 1.546-2.005 2.267l-.116-.247c-2.384 2.775-3.377 6.074-3.807 9.571-.837 6.804-.146 13.586.41 20.367.145 1.769.321 3.535.298 5.325-.983-4.737-1.819-9.51-2.991-14.2-1.118-4.472-2.381-8.93-3.948-13.261-2.631-7.268-7.913-11.945-15.344-13.744-6.109-1.478-12.358-2.381-18.557-3.474-2.206-.388-4.445-.585-5.789-.756 4.658-.28 10.172-.464 15.655-.982 4.956-.468 9.72-1.8 13.895-4.687 4.982-3.444 7.677-8.496 9.589-14.056 2.25-6.54 3.447-13.323 4.525-20.128.701-4.425 1.331-8.86 2.161-13.284 0 1.801.081 3.607-.013 5.403-.447 8.545-.87 17.086.39 25.601.172 1.166.439 2.318.695 3.469.132.593.337 1.169.85 1.785l1.997-11.377c0 1.595-.053 3.23.011 4.86.11 2.777.085 5.583.496 8.32.554 3.696 2.897 6.116 6.556 6.682 3.973.614 8.018.76 10.75.998l-10.546 1.638-.086.617c2.415.737 4.795 1.632 7.251 2.183 7.698 1.726 15.531 1.596 23.495 1.569.13.254.12.418.109.582Zm-41.359-12.304c-2.416 5.313-7.331 5.79-12.25 6.256 1.479.33 2.914.557 4.345.813 4.275.765 7.776 2.549 9.167 7.077.359 1.167.72 2.335 1.053 3.51.246.87.449 1.752.672 2.63.226-1.51.201-2.973.231-4.436.092-4.451 1.551-6.47 5.744-8.013.223-.082.43-.208.766-.374-4.28-2.313-6.931-5.806-8.59-10.257-.401.98-.732 1.788-1.138 2.794ZM49.791 188.954c.587 1.195 1.123 2.296 1.788 3.661v-18.566h4.212v25.507c-1.453 0-2.902.067-4.337-.045-.373-.029-.81-.555-1.037-.955-3.45-6.066-6.87-12.15-10.301-18.227-.036-.063-.125-.097-.244-.185v19.321H35.7v-25.499c1.622 0 3.293-.025 4.961.027.242.008.546.338.697.594 2.806 4.751 5.593 9.514 8.434 14.367Zm326.542-8.141v-6.756h4.314v25.494c-1.447 0-2.893.067-4.324-.045-.374-.029-.806-.557-1.04-.957-3.544-6.053-7.059-12.123-10.498-18.046v18.96h-4.211v-25.505c1.594 0 3.224-.062 4.843.046.369.025.796.577 1.035.982 3.422 5.797 6.817 11.61 9.881 16.845v-11.018Zm-67.593 13.549c-2.204-4.274-2.386-8.619-.866-13.002 1.868-5.386 6.955-8.477 12.527-7.782 5.806.725 9.895 4.771 10.285 10.634.17 2.542.019 5.245-.675 7.676-1.309 4.578-4.623 7.298-9.36 7.904-4.966.636-9.133-.818-11.911-5.43Zm10.005-17.001c-2.158-.005-3.772.988-4.99 2.723-2.395 3.413-2.445 9.739-.097 13.188 2.756 4.047 8.408 3.871 10.74-.434 2.092-3.861 2.091-7.894.193-11.834-1.096-2.273-2.933-3.659-5.846-3.643Zm-122.196 22.198c-3.284-.002-3.288-.001-4.085-3.053a76.082 76.082 0 0 1-.668-2.753c-.925-4.15-2.479-5.207-6.826-4.542v10.247h-4.65v-25.196c4.179-.506 8.378-1.067 12.534.255 2.756.876 4.266 2.89 4.509 5.755.231 2.728-.88 4.873-3.158 6.392-.384.256-.795.472-1.296.767 2.033 1.029 2.836 2.814 3.366 4.756.657 2.407 1.251 4.831 1.905 7.372h-1.631Zm-4.547-15.887c1.362-2.58.635-5.245-1.843-5.905-1.621-.431-3.385-.325-5.095-.46v8.273c2.496-.015 4.958.359 6.938-1.908Zm-46.357 11.954h4.877v3.837H135.25v-25.422h14.717v3.792H139.96v6.453h9.402v3.894h-9.439v7.446h5.722Zm270.765-6.833c-.006 2.31-.006 4.479-.006 6.811h10.561v3.869h-15.199v-25.419h14.597v3.741h-9.861v6.518h9.335v3.884c-2.701 0-5.417-.02-8.133.021-.432.006-.859.284-1.294.575Zm-329.25-6.096a2449.58 2449.58 0 0 1-2.762-8.675h5.164l5.966 20.321c.135-.519.24-.998.385-1.465 1.858-6.036 3.71-12.075 5.617-18.096.112-.352.673-.764 1.052-.793 1.307-.097 2.626-.037 4.187-.037-.358 1.071-.657 1.986-.97 2.896-2.467 7.179-4.956 14.35-7.384 21.541-.31.918-.706 1.275-1.68 1.189-1.35-.12-3.029.371-3.98-.273-.87-.588-.982-2.33-1.387-3.577-1.397-4.305-2.776-8.617-4.207-13.031Zm379.311 2.244c2.547 1.099 4.725 2.463 5.496 5.24 1.059 3.813-.794 7.388-4.562 8.931-3.28 1.343-8.54.996-11.768-.844l.93-3.606c1.85.446 3.591.957 5.367 1.254.901.151 1.892.032 2.797-.171 1.44-.323 2.448-1.223 2.662-2.767.205-1.482-.491-2.575-1.718-3.302-.805-.477-1.696-.805-2.539-1.22-1.388-.683-2.879-1.222-4.131-2.103-4.115-2.896-3.957-8.512.231-11.284 3.069-2.03 8.801-2.116 11.943-.12l-1.054 3.481c-1.532-.349-2.924-.815-4.345-.941a7.013 7.013 0 0 0-3.155.46c-2.209.9-2.514 3.505-.538 4.843 1.306.884 2.852 1.411 4.384 2.149Zm-235.5 2.289c-2.618-1.42-4.365-3.342-4.316-6.401.043-2.734 1.307-4.851 3.748-6.043 1.281-.626 2.742-1.014 4.162-1.193 2.457-.31 4.861.105 7.265 1.217l-1.09 3.67c-1.232-.324-2.377-.777-3.555-.895a11.458 11.458 0 0 0-3.615.208c-1.153.262-1.966 1.144-2.133 2.391-.161 1.202.411 2.152 1.403 2.74 1.046.621 2.188 1.078 3.282 1.619 1.22.604 2.523 1.09 3.635 1.855 4.443 3.059 4.106 9.74-.687 12.209-3.981 2.05-8.115 1.647-12.162.023-.266-.107-.52-.74-.462-1.072.178-1.015.512-2.002.758-2.897 1.814.439 3.556.932 5.328 1.256.812.149 1.704.068 2.524-.093 1.414-.279 2.546-.994 2.891-2.541.324-1.448-.208-2.705-1.636-3.603-.751-.472-1.593-.802-2.406-1.169-.941-.424-1.896-.819-2.934-1.281ZM.3 199.511c-.183-.351-.294-.667-.294-.983-.009-7.896-.006-15.791-.003-23.686 0-.231.029-.462.05-.788H4.61v25.491c-1.395 0-2.79 0-4.31-.034Zm273.888-25.558h3.03v25.513h-4.546v-25.449c.473-.022.927-.043 1.516-.064Z"/>
</svg>
