<svg xmlns="http://www.w3.org/2000/svg" width="192" height="150" fill="none" viewBox="0 0 192 150">
  <g clip-path="url(#a)">
    <path fill="#000" d="m187.554 25.73-8.288 1.054V3.95A3.943 3.943 0 0 0 175.319 0H16.509a3.943 3.943 0 0 0-3.946 3.95v44.246l-9.116 1.172A3.95 3.95 0 0 0 0 53.292v43.284a3.953 3.953 0 0 0 3.38 3.911l9.183 1.317V48.196l166.69-21.398v96.405l-166.69-21.399v44.246A3.943 3.943 0 0 0 16.51 150h158.809a3.944 3.944 0 0 0 3.947-3.95v-22.834l8.13 1.027a3.942 3.942 0 0 0 4.446-3.911L192 29.655c0-2.384-2.092-4.227-4.446-3.924Z"/>
  </g>
  <defs>
    <clipPath id="a">
      <path fill="#fff" d="M0 0h192v150H0z"/>
    </clipPath>
  </defs>
</svg>
