<svg xmlns="http://www.w3.org/2000/svg" width="367" height="150" fill="none" viewBox="0 0 367 150">
  <path fill="#000" d="m79.465 64.888-3.472.439v-9.514c0-.911-.738-1.647-1.653-1.647H7.825c-.915 0-1.653.736-1.653 1.647v18.435l-3.818.489A1.649 1.649 0 0 0 .91 76.372v18.035a1.65 1.65 0 0 0 1.416 1.63l3.846.548V74.248l69.816-8.916v40.169L6.172 96.585v18.435c0 .911.738 1.647 1.653 1.647H74.34c.915 0 1.653-.736 1.653-1.647v-9.514l3.405.428a1.647 1.647 0 0 0 1.863-1.629l.066-37.782c0-.993-.876-1.761-1.862-1.635ZM160.125 116H146.25V53.75h13.875V116ZM147 86.375l.125 4c-.167 1.083-.542 2.708-1.125 4.875-.5 2.167-1.375 4.542-2.625 7.125-1.167 2.5-2.75 4.917-4.75 7.25-1.917 2.25-4.333 4.125-7.25 5.625-2.917 1.417-6.458 2.125-10.625 2.125-3 0-6.042-.417-9.125-1.25-3-.75-5.75-2.042-8.25-3.875-2.417-1.833-4.375-4.333-5.875-7.5s-2.25-7.167-2.25-12v-39h13.875v36.375c0 3.917.625 7 1.875 9.25 1.333 2.167 3.167 3.708 5.5 4.625 2.333.917 5.042 1.375 8.125 1.375 4.417 0 8.167-1 11.25-3s5.542-4.458 7.375-7.375c1.917-3 3.167-5.875 3.75-8.625Zm28.45-32.625h13.875V116H175.45V53.75Zm36.375 11.875c-4.5 0-8.375.958-11.625 2.875-3.166 1.917-5.708 4.25-7.625 7-1.916 2.75-3.25 5.417-4 8l-.125-7c.084-.917.375-2.292.875-4.125.5-1.917 1.25-4 2.25-6.25 1.084-2.25 2.5-4.417 4.25-6.5 1.834-2.167 4.042-3.917 6.625-5.25 2.667-1.333 5.792-2 9.375-2v13.25Zm52.875 51.75c-5.166 0-9.541-1-13.125-3-3.5-2.083-6.333-4.75-8.5-8a37.015 37.015 0 0 1-4.625-10.5c-.916-3.833-1.375-7.458-1.375-10.875 0-4.583.459-8.833 1.375-12.75.917-3.917 2.417-7.333 4.5-10.25 2.167-3 5-5.333 8.5-7 3.584-1.75 8-2.625 13.25-2.625 6 0 11.292 1.375 15.875 4.125 4.667 2.75 8.334 6.583 11 11.5 2.75 4.833 4.125 10.5 4.125 17 0 6.333-1.375 11.958-4.125 16.875-2.75 4.833-6.458 8.625-11.125 11.375-4.666 2.75-9.916 4.125-15.75 4.125Zm-4.25-11.5c4.25 0 7.917-.875 11-2.625 3.167-1.75 5.625-4.208 7.375-7.375S281.45 89.083 281.45 85c0-6.25-1.833-11.333-5.5-15.25-3.666-4-8.833-6-15.5-6-4.583 0-8.541.875-11.875 2.625-3.25 1.75-5.75 4.208-7.5 7.375-1.666 3.083-2.5 6.833-2.5 11.25 0 4 .834 7.583 2.5 10.75 1.75 3.167 4.25 5.667 7.5 7.5 3.25 1.75 7.209 2.625 11.875 2.625ZM238.575 28.75v72.5c0 2.25-.125 4.792-.375 7.625s-.5 5.208-.75 7.125h-12.875V28.75h14Zm66.571 66.75h12.875c.667 3.167 2.375 5.75 5.125 7.75 2.75 1.917 6.459 2.875 11.125 2.875 3 0 5.334-.333 7-1 1.75-.667 2.959-1.583 3.625-2.75.75-1.167 1.125-2.5 1.125-4 0-1.833-.541-3.25-1.625-4.25-1-1-2.5-1.833-4.5-2.5s-4.5-1.25-7.5-1.75a163.347 163.347 0 0 1-9.125-2.5c-3-.917-5.708-2.042-8.125-3.375-2.416-1.417-4.333-3.167-5.75-5.25-1.333-2.167-2-4.792-2-7.875 0-2.833.625-5.375 1.875-7.625 1.334-2.333 3.167-4.292 5.5-5.875 2.334-1.583 5.084-2.792 8.25-3.625 3.167-.917 6.625-1.375 10.375-1.375 5.417 0 9.917.875 13.5 2.625 3.667 1.75 6.417 4.208 8.25 7.375 1.917 3.167 2.875 6.792 2.875 10.875h-12.25c-.666-3.333-1.958-5.75-3.875-7.25-1.916-1.5-4.791-2.25-8.625-2.25-3.833 0-6.75.667-8.75 2s-3 3.167-3 5.5c0 1.75.625 3.167 1.875 4.25 1.334 1 3.209 1.875 5.625 2.625 2.417.75 5.25 1.5 8.5 2.25 3 .833 5.834 1.708 8.5 2.625 2.667.833 5.042 1.917 7.125 3.25 2.167 1.25 3.875 2.917 5.125 5s1.875 4.667 1.875 7.75c0 3.833-1.041 7.125-3.125 9.875-2 2.75-4.916 4.875-8.75 6.375-3.833 1.417-8.458 2.125-13.875 2.125-4.75 0-8.875-.542-12.375-1.625-3.416-1.083-6.291-2.5-8.625-4.25-2.25-1.75-4-3.625-5.25-5.625s-2.125-3.917-2.625-5.75c-.416-1.833-.541-3.375-.375-4.625Z"/>
</svg>
