<svg xmlns="http://www.w3.org/2000/svg" version="1.1" xmlns:xlink="http://www.w3.org/1999/xlink" width="1000" height="1000"><metadata><rdf:RDF xmlns:rdf="http://www.w3.org/1999/02/22-rdf-syntax-ns#" xmlns:dc="http://purl.org/dc/elements/1.1/"><rdf:Description><dc:creator>RealFaviconGenerator</dc:creator><dc:source>https://realfavicongenerator.net</dc:source></rdf:Description></rdf:RDF></metadata><g clip-path="url(#SvgjsClipPath1017)"><rect width="1000" height="1000" fill="#ffffff"></rect><g transform="matrix(33.333333333333336,0,0,33.333333333333336,100,100)"><svg xmlns="http://www.w3.org/2000/svg" width="24" height="24" viewBox="0 0 24 24" fill="none"><path d="M6.00156 8.4001C7.32705 8.4001 8.40156 7.32558 8.40156 6.0001C8.40156 4.67461 7.32705 3.6001 6.00156 3.6001C4.67608 3.6001 3.60156 4.67461 3.60156 6.0001C3.60156 7.32558 4.67608 8.4001 6.00156 8.4001Z" fill="#6E4DAB"></path><path d="M12.625 10.4902L15.9209 7.19336C16.1323 7.56119 16.4382 7.86618 16.8057 8.07812L13.5098 11.375H21V12.625H13.5098L16.8057 15.9209C16.4382 16.1327 16.1324 16.4381 15.9209 16.8057L12.625 13.5098V21H11.375V13.5098L8.08008 16.8037C7.86817 16.4363 7.56302 16.1303 7.19531 15.9189L10.4902 12.625H3V11.375H10.4902L5.55762 6.44238L6.44238 5.55762L11.375 10.4902V3H12.625V10.4902Z" fill="#6E4DAB" fill-opacity="0.32"></path><path d="M18.0016 8.4001C19.327 8.4001 20.4016 7.32558 20.4016 6.0001C20.4016 4.67461 19.327 3.6001 18.0016 3.6001C16.6761 3.6001 15.6016 4.67461 15.6016 6.0001C15.6016 7.32558 16.6761 8.4001 18.0016 8.4001Z" fill="#6E4DAB" fill-opacity="0.6"></path><path d="M6.00156 20.4001C7.32705 20.4001 8.40156 19.3256 8.40156 18.0001C8.40156 16.6746 7.32705 15.6001 6.00156 15.6001C4.67608 15.6001 3.60156 16.6746 3.60156 18.0001C3.60156 19.3256 4.67608 20.4001 6.00156 20.4001Z" fill="#6E4DAB" fill-opacity="0.6"></path><path d="M12.0016 15.4001C13.8793 15.4001 15.4016 13.8779 15.4016 12.0001C15.4016 10.1223 13.8793 8.6001 12.0016 8.6001C10.1238 8.6001 8.60156 10.1223 8.60156 12.0001C8.60156 13.8779 10.1238 15.4001 12.0016 15.4001Z" fill="#6E4DAB"></path><path d="M18.0016 20.4001C19.327 20.4001 20.4016 19.3256 20.4016 18.0001C20.4016 16.6746 19.327 15.6001 18.0016 15.6001C16.6761 15.6001 15.6016 16.6746 15.6016 18.0001C15.6016 19.3256 16.6761 20.4001 18.0016 20.4001Z" fill="#6E4DAB" fill-opacity="0.6"></path></svg></g></g><defs><clipPath id="SvgjsClipPath1017"><rect width="1000" height="1000" x="0" y="0" rx="350" ry="350"></rect></clipPath></defs></svg>