<svg
    xmlns="http://www.w3.org/2000/svg"
    width="24"
    height="24"
    viewBox="0 0 24 24"
    fill="none"
>
  <title>Urbs icon</title>
  <path
        fill="#6E4DAB"
        d="M6.002 8.4a2.4 2.4 0 1 0 0-4.8 2.4 2.4 0 0 0 0 4.8Z"
    />
  <path
        fill="#6E4DAB"
        fill-opacity="0.32"
        d="m12.625 10.49 3.296-3.297c.211.368.517.673.885.885l-3.296 3.297H21v1.25h-7.49l3.296 3.296a2.409 2.409 0 0 0-.885.885l-3.296-3.296V21h-1.25v-7.49L8.08 16.804a2.408 2.408 0 0 0-.885-.885l3.295-3.294H3v-1.25h7.49L5.558 6.442l.884-.884 4.933 4.932V3h1.25v7.49Z"
    />
  <path
        fill="#6E4DAB"
        fill-opacity="0.6"
        d="M18.002 8.4a2.4 2.4 0 1 0 0-4.8 2.4 2.4 0 0 0 0 4.8ZM6.002 20.4a2.4 2.4 0 1 0 0-4.8 2.4 2.4 0 0 0 0 4.8Z"
    />
  <path
        fill="#6E4DAB"
        d="M12.002 15.4a3.4 3.4 0 1 0 0-6.8 3.4 3.4 0 0 0 0 6.8Z"
    />
  <path
        fill="#6E4DAB"
        fill-opacity="0.6"
        d="M18.002 20.4a2.4 2.4 0 1 0 0-4.8 2.4 2.4 0 0 0 0 4.8Z"
    />
</svg>
